<?xml version="1.0" standalone="no"?>
<!DOCTYPE svg PUBLIC "-//W3C//DTD SVG 1.1//EN" "http://www.w3.org/Graphics/SVG/1.1/DTD/svg11.dtd" >
<svg xmlns="http://www.w3.org/2000/svg" xmlns:xlink="http://www.w3.org/1999/xlink" version="1.1">
<metadata></metadata>
<defs>
<font id="industrythin" horiz-adv-x="1318" >
<font-face units-per-em="2048" ascent="1638" descent="-410" />
<missing-glyph horiz-adv-x="471" />
<glyph unicode="&#xfb01;" horiz-adv-x="1185" d="M70 1061v45h206v94q0 150 73 222.5t222 72.5h78v-45h-74q-126 0 -187.5 -61.5t-61.5 -188.5v-94h344v-45h-344v-1061h-50v1061h-206zM920 1343v111h69v-111h-69zM930 0v1106h49v-1106h-49z" />
<glyph unicode="&#xfb02;" horiz-adv-x="1165" d="M70 1061v45h206v94q0 150 73 222.5t222 72.5h78v-45h-74q-126 0 -187.5 -61.5t-61.5 -188.5v-94h344v-45h-344v-1061h-50v1061h-206zM920 0v1495h49v-1495h-49z" />
<glyph horiz-adv-x="0" />
<glyph horiz-adv-x="682" />
<glyph unicode=" "  horiz-adv-x="471" />
<glyph unicode="&#x09;" horiz-adv-x="471" />
<glyph unicode="&#xa0;" horiz-adv-x="471" />
<glyph unicode="!" horiz-adv-x="634" d="M279 0v119h77v-119h-77zM287 1434h61l-12 -1090h-37z" />
<glyph unicode="&#x22;" horiz-adv-x="673" d="M193 1434h47l-7 -426h-34zM430 1434h47l-6 -426h-35z" />
<glyph unicode="#" horiz-adv-x="1509" d="M111 479v41h307l119 459h-285v41h295l106 414h47l-108 -414h477l107 414h47l-109 -414h281v-41h-291l-119 -459h268v-41h-278l-125 -479h-43l123 479h-477l-125 -479h-43l123 479h-297zM463 520h477l119 459h-477z" />
<glyph unicode="$" horiz-adv-x="1269" d="M162 369v39h49v-39q0 -176 62.5 -250t199.5 -74h141v674l-198 53q-145 39 -195.5 105.5t-50.5 207.5q0 184 75.5 266.5t235.5 82.5h133v176h45v-176h123q160 0 236 -82.5t76 -266.5v-28h-50v28q0 162 -63 233t-199 71h-123v-635l205 -56q145 -40 195.5 -108t50.5 -221 q0 -198 -75 -283.5t-236 -85.5h-140v-176h-45v176h-141q-161 0 -236 85.5t-75 283.5zM219 1085q0 -124 38.5 -178.5t158.5 -87.5l198 -53v623h-133q-136 0 -199 -71t-63 -233zM659 45h140q137 0 199.5 74t62.5 250q0 136 -38.5 193t-158.5 89l-205 56v-662z" />
<glyph unicode="%" d="M119 1053v196q0 94 45 139.5t139 45.5h70q94 0 139 -45.5t45 -139.5v-196q0 -94 -45 -139.5t-139 -45.5h-70q-94 0 -139 45.5t-45 139.5zM164 1049q0 -140 139 -140h70q139 0 139 140v204q0 140 -139 140h-70q-139 0 -139 -140v-204zM193 0l884 1434h49l-884 -1434h-49z M762 184v197q0 94 45 139t139 45h70q94 0 139 -45t45 -139v-197q0 -94 -45 -139t-139 -45h-70q-94 0 -139 45t-45 139zM807 180q0 -139 139 -139h70q139 0 139 139v205q0 139 -139 139h-70q-139 0 -139 -139v-205z" />
<glyph unicode="&#x26;" horiz-adv-x="1347" d="M166 381q0 182 54 262t161 94q-101 20 -150 96.5t-49 237.5q0 193 75.5 278t236.5 85h274q152 0 231.5 -80t79.5 -232v-92h-49v96q0 128 -67.5 195.5t-194.5 67.5h-274q-136 0 -199.5 -73t-63.5 -243t63.5 -242.5t199.5 -72.5h766v-45h-179v-402q0 -152 -79.5 -231.5 t-231.5 -79.5h-293q-162 0 -236.5 87.5t-74.5 293.5zM215 379q0 -183 62.5 -258.5t199.5 -75.5h293q128 0 195 67.5t67 194.5v406h-555q-137 0 -199.5 -75.5t-62.5 -258.5z" />
<glyph unicode="'" horiz-adv-x="436" d="M193 1434h47l-7 -426h-34z" />
<glyph unicode="(" horiz-adv-x="645" d="M213 94v1159q0 158 76.5 235t234.5 77h25v-45h-25q-133 0 -197.5 -64.5t-64.5 -198.5v-1167q0 -134 64 -198t198 -64h25v-45h-25q-158 0 -234.5 76.5t-76.5 234.5z" />
<glyph unicode=")" horiz-adv-x="645" d="M96 -172h25q133 0 197.5 64t64.5 198v1167q0 134 -64.5 198.5t-197.5 64.5h-25v45h25q158 0 234.5 -77t76.5 -235v-1159q0 -158 -76.5 -234.5t-234.5 -76.5h-25v45z" />
<glyph unicode="*" horiz-adv-x="798" d="M68 1180l12 39l297 -97v312h41v-312l297 97l12 -39l-297 -97l184 -249l-34 -25l-183 252l-182 -252l-35 25l185 249z" />
<glyph unicode="+" horiz-adv-x="1044" d="M152 735v45h346v363h49v-363h346v-45h-346v-362h-49v362h-346z" />
<glyph unicode="," horiz-adv-x="421" d="M137 -236l82 236h-47v119h78v-90q0 -14 -1.5 -26t-7 -29t-8 -25t-14 -36t-16.5 -40l-43 -109h-23z" />
<glyph unicode="-" horiz-adv-x="815" d="M147 655v41h521v-41h-521z" />
<glyph unicode="." horiz-adv-x="421" d="M172 0v119h78v-119h-78z" />
<glyph unicode="/" horiz-adv-x="872" d="M41 -143l741 1720h49l-741 -1720h-49z" />
<glyph unicode="0" horiz-adv-x="1312" d="M182 311v811q0 158 77 235t235 77h325q158 0 234.5 -77t76.5 -235v-811q0 -158 -76.5 -234.5t-234.5 -76.5h-325q-158 0 -235 76.5t-77 234.5zM231 307q0 -133 64.5 -197.5t198.5 -64.5h325q133 0 197.5 64.5t64.5 197.5v819q0 134 -64.5 198.5t-197.5 64.5h-325 q-134 0 -198.5 -64.5t-64.5 -198.5v-819z" />
<glyph unicode="1" horiz-adv-x="665" d="M123 1288v51l248 95h57v-1434h-49v1384z" />
<glyph unicode="2" horiz-adv-x="1208" d="M164 0h889v45h-840v223q0 75 49 127t197 146l348 223q157 101 199.5 152t42.5 141v65q0 158 -77 235t-235 77h-241q-158 0 -235 -77t-77 -235v-92h49v96q0 134 64.5 198.5t198.5 64.5h241q133 0 197.5 -64.5t64.5 -198.5v-69q0 -77 -37.5 -120t-154.5 -118l-348 -223 q-101 -64 -158.5 -107.5t-88.5 -81t-39.5 -66.5t-8.5 -73v-268z" />
<glyph unicode="3" horiz-adv-x="1224" d="M147 352v10h50v-14q0 -162 63 -232.5t199 -70.5h299q137 0 199.5 75.5t62.5 258.5t-62.5 258.5t-199.5 75.5h-348v45h331q136 0 199.5 72.5t63.5 242.5t-63.5 243t-199.5 73h-266q-136 0 -199 -71t-63 -233v-14h-49v10q0 187 75.5 270t235.5 83h266q161 0 236.5 -85 t75.5 -278q0 -161 -49 -237.5t-150 -96.5q107 -14 161 -94t54 -262q0 -206 -74.5 -293.5t-236.5 -87.5h-299q-161 0 -236.5 83t-75.5 269z" />
<glyph unicode="4" horiz-adv-x="1259" d="M86 418v45l799 971h69v-971h220v-45h-220v-418h-49v418h-819zM143 463h762v926z" />
<glyph unicode="5" horiz-adv-x="1210" d="M176 311v72h49v-76q0 -133 64.5 -197.5t197.5 -64.5h261q134 0 198 64.5t64 197.5v322q0 136 -73 199t-243 63q-140 0 -244 -39.5t-217 -128.5l-49 16v695h867v-45h-818v-621q105 85 210.5 126.5t250.5 41.5q195 0 280 -75t85 -236v-314q0 -158 -76.5 -234.5 t-234.5 -76.5h-261q-158 0 -234.5 76.5t-76.5 234.5z" />
<glyph unicode="6" horiz-adv-x="1241" d="M182 311v811q0 158 77 235t235 77h235q158 0 234.5 -77t76.5 -235v-78h-49v82q0 134 -64.5 198.5t-197.5 64.5h-235q-134 0 -198.5 -64.5t-64.5 -198.5v-407q105 85 211 126.5t254 41.5q198 0 283.5 -75.5t85.5 -236.5v-264q0 -158 -76.5 -234.5t-234.5 -76.5h-260 q-158 0 -235 76.5t-77 234.5zM231 307q0 -133 64.5 -197.5t198.5 -64.5h260q134 0 198 64.5t64 197.5v273q0 137 -73.5 199.5t-246.5 62.5q-143 0 -247.5 -39.5t-217.5 -128.5v-367z" />
<glyph unicode="7" horiz-adv-x="1097" d="M86 1389v45h922v-29l-631 -1405h-53l626 1389h-864z" />
<glyph unicode="8" horiz-adv-x="1269" d="M156 381q0 182 54 262t161 94q-101 20 -150 96.5t-49 237.5q0 194 75 278.5t236 84.5h303q161 0 236.5 -85t75.5 -278q0 -161 -49 -237.5t-150 -96.5q107 -14 161 -94t54 -262q0 -206 -74.5 -293.5t-236.5 -87.5h-336q-162 0 -236.5 87.5t-74.5 293.5zM205 379 q0 -183 62.5 -258.5t199.5 -75.5h336q137 0 199.5 75.5t62.5 258.5t-62.5 258.5t-199.5 75.5h-336q-137 0 -199.5 -75.5t-62.5 -258.5zM221 1073q0 -170 63 -242.5t199 -72.5h303q136 0 199.5 72.5t63.5 242.5t-63.5 243t-199.5 73h-303q-136 0 -199 -73t-63 -243z" />
<glyph unicode="9" horiz-adv-x="1241" d="M176 870v252q0 158 76.5 235t234.5 77h261q158 0 234.5 -77t76.5 -235v-811q0 -158 -76.5 -234.5t-234.5 -76.5h-236q-158 0 -234.5 76.5t-76.5 234.5v78h49v-82q0 -133 64 -197.5t198 -64.5h236q134 0 198 64.5t64 197.5v420q-105 -85 -211 -126.5t-254 -41.5 q-198 0 -283.5 75t-85.5 236zM225 866q0 -137 73.5 -199.5t246.5 -62.5q143 0 247.5 39.5t217.5 128.5v354q0 134 -64.5 198.5t-197.5 64.5h-261q-133 0 -197.5 -64.5t-64.5 -198.5v-260z" />
<glyph unicode=":" horiz-adv-x="421" d="M172 0v119h78v-119h-78zM172 987v119h78v-119h-78z" />
<glyph unicode=";" horiz-adv-x="421" d="M137 -236l82 236h-47v119h78v-90q0 -14 -1.5 -26t-7 -29t-8 -25t-14 -36t-16.5 -40l-43 -109h-23zM172 987v119h78v-119h-78z" />
<glyph unicode="&#x3c;" horiz-adv-x="1040" d="M143 721l734 -379v51l-684 350l684 353v51l-734 -381v-45z" />
<glyph unicode="=" horiz-adv-x="1044" d="M152 600v45h741v-45h-741zM152 887v45h741v-45h-741z" />
<glyph unicode="&#x3e;" horiz-adv-x="1040" d="M164 342l733 379v45l-733 381v-51l684 -353l-684 -350v-51z" />
<glyph unicode="?" horiz-adv-x="1132" d="M78 1034v88q0 158 76.5 235t234.5 77h313q158 0 235 -77t77 -235v-43q0 -73 -24 -118.5t-77.5 -83.5t-171.5 -97l-36 -18q-67 -33 -103 -54.5t-67 -50.5t-42.5 -63t-11.5 -82v-164h-49v164q0 105 51.5 160.5t221.5 140.5l36 18q68 34 103 54.5t66.5 49.5t43 62.5 t11.5 81.5v47q0 134 -64.5 198.5t-198.5 64.5h-313q-133 0 -197.5 -64.5t-64.5 -198.5v-92h-49zM436 0v174h49v-174h-49z" />
<glyph unicode="@" horiz-adv-x="1853" d="M213 -16v1138q0 158 76.5 235t234.5 77h805q158 0 234.5 -77t76.5 -235v-712q0 -158 -76.5 -235t-234.5 -77h-86l-16 160q-106 -96 -194 -132t-179 -36q-169 0 -248.5 76t-79.5 235v308q0 159 79.5 235t248.5 76q91 0 179 -36t194 -132l16 160h33v-873h53q135 0 200.5 66 t65.5 201v720q0 135 -65.5 201t-200.5 66h-805q-135 0 -200.5 -65.5t-65.5 -201.5v-1146q0 -135 65.5 -201t200.5 -66h1043v-41h-1043q-158 0 -234.5 77t-76.5 235zM575 397q0 -134 67 -198t212 -64q90 0 176.5 37.5t196.5 130.5v504q-110 93 -196.5 130.5t-176.5 37.5 q-145 0 -212 -64t-67 -198v-316z" />
<glyph unicode="A" d="M82 0l551 1434h53l551 -1434h-55l-162 422h-721l-162 -422h-55zM315 467h689l-345 903z" />
<glyph unicode="B" d="M217 0v1434h619q161 0 236 -85t75 -280q0 -156 -50 -235t-149 -97q106 -14 160.5 -95.5t54.5 -260.5q0 -206 -74.5 -293.5t-236.5 -87.5h-635zM266 45h586q137 0 199.5 75.5t62.5 258.5t-62.5 258.5t-199.5 75.5h-586v-668zM266 758h570q136 0 199 72.5t63 242.5t-63 243 t-199 73h-570v-631z" />
<glyph unicode="C" horiz-adv-x="1288" d="M182 311v811q0 158 77 235t235 77h327q158 0 235 -77t77 -235v-78h-50v82q0 134 -64.5 198.5t-197.5 64.5h-327q-134 0 -198.5 -64.5t-64.5 -198.5v-819q0 -133 64.5 -197.5t198.5 -64.5h327q133 0 197.5 64.5t64.5 197.5v82h50v-78q0 -158 -77 -234.5t-235 -76.5h-327 q-158 0 -235 76.5t-77 234.5z" />
<glyph unicode="D" horiz-adv-x="1363" d="M217 0v1434h653q158 0 235 -77t77 -235v-811q0 -158 -77 -234.5t-235 -76.5h-653zM266 45h604q134 0 198.5 64.5t64.5 197.5v819q0 134 -64.5 198.5t-198.5 64.5h-604v-1344z" />
<glyph unicode="E" horiz-adv-x="1208" d="M217 0v1434h870v-45h-821v-631h707v-45h-707v-668h821v-45h-870z" />
<glyph unicode="F" horiz-adv-x="1173" d="M217 0v1434h870v-45h-821v-650h707v-45h-707v-694h-49z" />
<glyph unicode="G" horiz-adv-x="1335" d="M182 311v811q0 158 77 235t235 77h350q158 0 234.5 -77t76.5 -235v-73h-49v77q0 134 -64.5 198.5t-197.5 64.5h-350q-134 0 -198.5 -64.5t-64.5 -198.5v-819q0 -133 64.5 -197.5t198.5 -64.5h350q134 0 198 64.5t64 197.5v338h-440v45h489v-379q0 -158 -76.5 -234.5 t-234.5 -76.5h-350q-158 0 -235 76.5t-77 234.5z" />
<glyph unicode="H" horiz-adv-x="1417" d="M217 0v1434h49v-674h885v674h49v-1434h-49v715h-885v-715h-49z" />
<glyph unicode="I" horiz-adv-x="483" d="M217 0v1434h49v-1434h-49z" />
<glyph unicode="J" horiz-adv-x="1157" d="M115 311v144h49v-148q0 -133 64 -197.5t198 -64.5h221q133 0 197.5 64.5t64.5 197.5v1127h49v-1123q0 -158 -76.5 -234.5t-234.5 -76.5h-221q-158 0 -234.5 76.5t-76.5 234.5z" />
<glyph unicode="K" horiz-adv-x="1292" d="M217 0v1434h49v-904l834 904h65l-522 -562l578 -872h-58l-553 838l-344 -371v-467h-49z" />
<glyph unicode="L" horiz-adv-x="1134" d="M217 0v1434h49v-1389h770v-45h-819z" />
<glyph unicode="M" horiz-adv-x="1708" d="M217 0v1434h49l588 -1170l588 1170h49v-1434h-49v1329l-568 -1130h-40l-568 1130v-1329h-49z" />
<glyph unicode="N" horiz-adv-x="1437" d="M217 0v1434h43l911 -1340v1340h50v-1434h-43l-912 1341v-1341h-49z" />
<glyph unicode="O" horiz-adv-x="1357" d="M182 311v811q0 158 77 235t235 77h370q158 0 235 -77t77 -235v-811q0 -158 -77 -234.5t-235 -76.5h-370q-158 0 -235 76.5t-77 234.5zM231 307q0 -133 64.5 -197.5t198.5 -64.5h370q134 0 198 64.5t64 197.5v819q0 134 -64.5 198.5t-197.5 64.5h-370q-134 0 -198.5 -64.5 t-64.5 -198.5v-819z" />
<glyph unicode="P" horiz-adv-x="1286" d="M217 0v1434h627q158 0 234.5 -77t76.5 -235v-209q0 -158 -76.5 -234.5t-234.5 -76.5h-578v-602h-49zM266 647h578q134 0 198 64.5t64 197.5v217q0 134 -64.5 198.5t-197.5 64.5h-578v-742z" />
<glyph unicode="Q" horiz-adv-x="1357" d="M182 311v811q0 158 77 235t235 77h370q158 0 235 -77t77 -235v-811q0 -158 -77 -234.5t-235 -76.5h-159v-266h-50v266h-161q-158 0 -235 76.5t-77 234.5zM231 307q0 -133 64.5 -197.5t198.5 -64.5h370q134 0 198 64.5t64 197.5v819q0 134 -64.5 198.5t-197.5 64.5h-370 q-134 0 -198.5 -64.5t-64.5 -198.5v-819z" />
<glyph unicode="R" horiz-adv-x="1335" d="M217 0v1434h625q158 0 234.5 -77t76.5 -235v-186q0 -158 -76 -234.5t-233 -76.5l354 -625h-55l-355 625h-522v-625h-49zM266 670h576q134 0 198 64t64 198v194q0 134 -64.5 198.5t-197.5 64.5h-576v-719z" />
<glyph unicode="S" horiz-adv-x="1271" d="M162 311v97h49v-101q0 -133 64.5 -197.5t197.5 -64.5h328q133 0 197.5 64.5t64.5 197.5v123q0 92 -40 141t-157 80l-450 121q-143 38 -194.5 100t-51.5 175v75q0 158 76.5 235t234.5 77h303q158 0 235 -77t77 -235v-65h-49v69q0 134 -64.5 198.5t-198.5 64.5h-303 q-133 0 -197.5 -64.5t-64.5 -198.5v-84q0 -93 40 -142.5t157 -80.5l450 -121q142 -39 194 -99.5t52 -172.5v-115q0 -158 -76.5 -234.5t-234.5 -76.5h-328q-158 0 -234.5 76.5t-76.5 234.5z" />
<glyph unicode="T" horiz-adv-x="1155" d="M74 1389v45h1003v-45h-477v-1389h-49v1389h-477z" />
<glyph unicode="U" horiz-adv-x="1347" d="M199 311v1123h49v-1127q0 -133 64 -197.5t198 -64.5h328q134 0 198 64.5t64 197.5v1127h49v-1123q0 -158 -76.5 -234.5t-234.5 -76.5h-328q-158 0 -234.5 76.5t-76.5 234.5z" />
<glyph unicode="V" horiz-adv-x="1253" d="M78 1434h55l494 -1377l495 1377h54l-519 -1434h-61z" />
<glyph unicode="W" horiz-adv-x="1847" d="M78 1434h53l361 -1368l405 1368h53l406 -1368l360 1368h53l-383 -1434h-61l-401 1354l-402 -1354h-61z" />
<glyph unicode="X" horiz-adv-x="1232" d="M78 0l512 729l-496 705h62l458 -662l461 662h60l-492 -701l512 -733h-61l-478 690l-479 -690h-59z" />
<glyph unicode="Y" horiz-adv-x="1236" d="M45 1434h57l514 -844l517 844h55l-547 -897v-537h-49v537z" />
<glyph unicode="Z" horiz-adv-x="1179" d="M137 0v31l842 1358h-807v45h870v-31l-841 -1358h837v-45h-901z" />
<glyph unicode="[" horiz-adv-x="686" d="M213 -217v1782h317v-45h-268v-1692h268v-45h-317z" />
<glyph unicode="\" horiz-adv-x="872" d="M41 1577h49l741 -1720h-49z" />
<glyph unicode="]" horiz-adv-x="686" d="M156 -172h268v1692h-268v45h317v-1782h-317v45z" />
<glyph unicode="^" horiz-adv-x="761" d="M86 795l276 639h33l277 -639h-49l-244 577l-244 -577h-49z" />
<glyph unicode="_" horiz-adv-x="1110" d="M12 -82h1086v-41h-1086v41z" />
<glyph unicode="`" horiz-adv-x="1492" d="M633 1884l205 -295h49l-193 295h-61z" />
<glyph unicode="a" horiz-adv-x="1103" d="M131 303q0 149 70.5 215t224.5 86l459 60v147q0 127 -62 188.5t-188 61.5h-164q-126 0 -188 -61.5t-62 -188.5v-18h-49v18q0 150 73 222.5t222 72.5h172q149 0 222 -72.5t73 -222.5v-811h-49v156q-96 -90 -187.5 -127t-228.5 -37q-178 0 -258 76t-80 235zM180 303 q0 -136 68.5 -201t222.5 -65q128 0 220 37.5t194 126.5v424l-455 -62q-132 -18 -191 -75.5t-59 -184.5z" />
<glyph unicode="b" horiz-adv-x="1150" d="M176 0v1495h49v-541q96 90 189 127t237 37q185 0 266.5 -71t81.5 -224v-540q0 -153 -81.5 -224t-266.5 -71q-144 0 -237 37t-189 127v-152h-49zM225 197q102 -90 195.5 -127t228.5 -37q162 0 231.5 60t69.5 190v540q0 130 -69.5 190t-231.5 60q-135 0 -228.5 -37 t-195.5 -127v-712z" />
<glyph unicode="c" horiz-adv-x="1064" d="M152 295v516q0 150 73 222.5t221 72.5h205q149 0 222 -72.5t73 -222.5v-25h-49v25q0 250 -250 250h-196q-127 0 -188.5 -62t-61.5 -188v-516q0 -127 61.5 -188.5t188.5 -61.5h196q127 0 188.5 61.5t61.5 188.5v24h49v-24q0 -150 -73 -222.5t-222 -72.5h-205 q-148 0 -221 72.5t-73 222.5z" />
<glyph unicode="d" horiz-adv-x="1150" d="M152 283v540q0 153 81.5 224t266.5 71q144 0 237 -37t189 -127v541h49v-1495h-49v152q-96 -90 -189 -127t-237 -37q-185 0 -266.5 71t-81.5 224zM201 283q0 -130 69.5 -190t231.5 -60q135 0 228.5 37t195.5 127v712q-102 90 -195.5 127t-228.5 37q-162 0 -231.5 -60 t-69.5 -190v-540z" />
<glyph unicode="e" horiz-adv-x="1105" d="M152 295v516q0 150 73 222.5t221 72.5h222q149 0 222 -72.5t73 -222.5v-254h-762v-262q0 -126 61.5 -188t188.5 -62h213q127 0 188 61t61 189v47h50v-47q0 -150 -73 -222.5t-222 -72.5h-222q-148 0 -221 72.5t-73 222.5zM201 602h712v209q0 250 -249 250h-213 q-127 0 -188.5 -62t-61.5 -188v-209z" />
<glyph unicode="f" horiz-adv-x="722" d="M70 1061v45h206v94q0 150 73 222.5t222 72.5h78v-45h-74q-126 0 -187.5 -61.5t-61.5 -188.5v-94h344v-45h-344v-1061h-50v1061h-206z" />
<glyph unicode="g" horiz-adv-x="1150" d="M152 283v540q0 153 81.5 224t266.5 71q144 0 237 -37t189 -127v152h49v-1139q0 -150 -73 -222.5t-222 -72.5h-410v45h406q126 0 188 61.5t62 188.5v185q-96 -90 -189 -127t-237 -37q-185 0 -266.5 71t-81.5 224zM201 283q0 -130 69.5 -190t231.5 -60q135 0 228.5 37 t195.5 127v712q-102 90 -195.5 127t-228.5 37q-162 0 -231.5 -60t-69.5 -190v-540z" />
<glyph unicode="h" horiz-adv-x="1140" d="M176 0v1495h49v-541q96 90 187 127t225 37q175 0 254.5 -71.5t79.5 -223.5v-823h-49v823q0 129 -67.5 189.5t-219.5 60.5q-125 0 -216.5 -37.5t-193.5 -126.5v-909h-49z" />
<glyph unicode="i" horiz-adv-x="462" d="M197 1343v111h69v-111h-69zM207 0v1106h49v-1106h-49z" />
<glyph unicode="j" horiz-adv-x="452" d="M-41 -313l61 30q57 29 85.5 47t52.5 44t31.5 57.5t7.5 81.5v1159h49v-1159q0 -50 -7 -83.5t-19 -59.5t-42 -49.5t-63 -42.5t-95 -50l-61 -31v56zM186 1343v111h70v-111h-70z" />
<glyph unicode="k" horiz-adv-x="976" d="M176 0v1495h49v-1059l615 670h63l-387 -418l420 -688h-59l-398 649l-254 -274v-375h-49z" />
<glyph unicode="l" horiz-adv-x="442" d="M197 0v1495h49v-1495h-49z" />
<glyph unicode="m" horiz-adv-x="1787" d="M176 0v1106h49v-152q95 89 182.5 126.5t204.5 37.5q243 0 295 -176q95 90 190.5 133t211.5 43q158 0 233.5 -72t75.5 -223v-823h-49v823q0 128 -63.5 189t-198.5 61q-108 0 -200.5 -40t-191.5 -128q7 -44 7 -82v-823h-50v823q0 128 -63.5 189t-198.5 61 q-108 0 -196.5 -38t-188.5 -126v-909h-49z" />
<glyph unicode="n" horiz-adv-x="1140" d="M176 0v1106h49v-152q96 90 187 127t225 37q175 0 254.5 -71.5t79.5 -223.5v-823h-49v823q0 129 -67.5 189.5t-219.5 60.5q-125 0 -216.5 -37.5t-193.5 -126.5v-909h-49z" />
<glyph unicode="o" horiz-adv-x="1120" d="M152 295v516q0 150 73 222.5t221 72.5h228q149 0 222 -72.5t73 -222.5v-516q0 -150 -73 -222.5t-222 -72.5h-228q-148 0 -221 72.5t-73 222.5zM201 295q0 -127 61.5 -188.5t188.5 -61.5h219q128 0 189 61.5t61 188.5v516q0 127 -61 188.5t-189 61.5h-219 q-127 0 -188.5 -61.5t-61.5 -188.5v-516z" />
<glyph unicode="p" horiz-adv-x="1150" d="M176 -328v1434h49v-152q96 90 189 127t237 37q185 0 266.5 -71t81.5 -224v-540q0 -153 -81.5 -224t-266.5 -71q-144 0 -237 37t-189 127v-480h-49zM225 197q102 -90 195.5 -127t228.5 -37q162 0 231.5 60t69.5 190v540q0 130 -69.5 190t-231.5 60q-135 0 -228.5 -37 t-195.5 -127v-712z" />
<glyph unicode="q" horiz-adv-x="1150" d="M152 283v540q0 153 81.5 224t266.5 71q144 0 237 -37t189 -127v152h49v-1434h-49v480q-96 -90 -189 -127t-237 -37q-185 0 -266.5 71t-81.5 224zM201 283q0 -130 69.5 -190t231.5 -60q135 0 228.5 37t195.5 127v712q-102 90 -195.5 127t-228.5 37q-162 0 -231.5 -60 t-69.5 -190v-540z" />
<glyph unicode="r" horiz-adv-x="729" d="M176 0v1106h49v-164q94 88 180 126t193 38h66v-47h-66q-100 0 -186.5 -38t-186.5 -126v-895h-49z" />
<glyph unicode="s" horiz-adv-x="1032" d="M127 295v43h49v-43q0 -127 61 -188.5t189 -61.5h180q128 0 189 67.5t61 213.5q0 90 -50 137.5t-175 75.5l-232 51q-130 29 -194 84t-64 151q0 281 295 281h144q148 0 221 -72.5t73 -222.5v-12h-49v12q0 127 -61.5 188.5t-188.5 61.5h-135q-250 0 -250 -236q0 -74 51 -119 t158 -69l232 -51q148 -33 211 -91t63 -171q0 -166 -73 -245t-222 -79h-188q-149 0 -222 72.5t-73 222.5z" />
<glyph unicode="t" horiz-adv-x="688" d="M66 1061v45h192v254h45v-254h291v-45h-289v-766q0 -127 61.5 -188.5t188.5 -61.5h39v-45h-43q-149 0 -222 72.5t-73 222.5v766h-190z" />
<glyph unicode="u" horiz-adv-x="1140" d="M170 283v823h49v-823q0 -129 67.5 -189.5t219.5 -60.5q125 0 216 37.5t193 126.5v909h50v-1106h-50v152q-96 -90 -186.5 -127t-224.5 -37q-175 0 -254.5 71.5t-79.5 223.5z" />
<glyph unicode="v" horiz-adv-x="974" d="M49 1106h51l387 -1049l387 1049h52l-410 -1106h-57z" />
<glyph unicode="w" horiz-adv-x="1495" d="M49 1106h51l287 -1049l332 1049h57l332 -1049l287 1049h51l-307 -1106h-62l-329 1047l-330 -1047h-62z" />
<glyph unicode="x" horiz-adv-x="985" d="M47 0l418 561l-414 545h60l381 -508l372 508h60l-408 -545l424 -561h-59l-392 524l-383 -524h-59z" />
<glyph unicode="y" horiz-adv-x="978" d="M49 1106h51l392 -1043l387 1043h51l-539 -1434h-51l127 328z" />
<glyph unicode="z" horiz-adv-x="905" d="M94 0v31l656 1032h-619v43h680v-31l-655 -1032h635v-43h-697z" />
<glyph unicode="{" horiz-adv-x="729" d="M86 674v41h10q105 0 153 53t48 160v325q0 158 76.5 235t234.5 77h27v-45h-27q-133 0 -197.5 -64.5t-64.5 -198.5v-329q0 -209 -172 -236q78 -10 125 -66.5t47 -164.5v-371q0 -134 64 -198t198 -64h25v-45h-25q-158 0 -234.5 76.5t-76.5 234.5v367q0 107 -48 160t-153 53 h-10z" />
<glyph unicode="|" horiz-adv-x="548" d="M250 -442v2013h49v-2013h-49z" />
<glyph unicode="}" horiz-adv-x="729" d="M94 1520v45h27q158 0 234.5 -77t76.5 -235v-325q0 -107 48 -160t153 -53h10v-41h-10q-105 0 -153 -53t-48 -160v-367q0 -158 -76.5 -234.5t-234.5 -76.5h-25v45h25q133 0 197.5 64t64.5 198v371q0 108 47 164.5t125 66.5q-172 27 -172 236v329q0 134 -64.5 198.5 t-197.5 64.5h-27z" />
<glyph unicode="~" horiz-adv-x="1032" d="M215 580h47v43q0 125 96 125q34 0 63.5 -19t53.5 -46t50 -54.5t65 -46.5t86 -19q143 0 143 176v35h-47v-43q0 -125 -98 -125q-38 0 -70 19t-56.5 46t-49.5 54.5t-61.5 46.5t-80.5 19q-141 0 -141 -177v-34z" />
<glyph unicode="&#xa1;" horiz-adv-x="634" d="M279 987v119h77v-119h-77zM287 -328l12 1090h37l12 -1090h-61z" />
<glyph unicode="&#xa2;" horiz-adv-x="1085" d="M160 520v406q0 158 76.5 234.5t234.5 76.5h51v197h45v-197h51q158 0 235 -76.5t77 -234.5v-8h-49v12q0 133 -64.5 197.5t-198.5 64.5h-51v-938h51q134 0 198.5 64.5t64.5 197.5v12h49v-8q0 -158 -77 -234.5t-235 -76.5h-51v-209h-45v209h-51q-158 0 -234.5 76.5 t-76.5 234.5zM209 516q0 -134 64.5 -198t197.5 -64h51v938h-51q-133 0 -197.5 -64t-64.5 -198v-414z" />
<glyph unicode="&#xa3;" horiz-adv-x="1271" d="M94 0v45h127q23 0 32 9t9 32v588h-168v45h168v403q0 158 76.5 235t234.5 77h228q158 0 234.5 -77t76.5 -235v-110h-49v114q0 134 -64.5 198.5t-197.5 64.5h-228q-133 0 -197.5 -64.5t-64.5 -198.5v-407h541v-45h-541v-629h809v-45h-1026z" />
<glyph unicode="&#xa4;" horiz-adv-x="1251" d="M147 227l150 150q-61 76 -61 217v291q0 140 57 215l-146 145l39 37l146 -145q77 59 215 59h153q142 0 218 -61l147 147l39 -37l-150 -149q58 -73 58 -211v-291q0 -140 -60 -215l152 -152l-39 -37l-150 150q-75 -57 -215 -57h-153q-139 0 -211 57l-150 -150zM285 590 q0 -134 64.5 -198t197.5 -64h153q134 0 198.5 64.5t64.5 197.5v299q0 133 -64.5 197.5t-198.5 64.5h-153q-152 0 -215 -84l-2 -4q-45 -60 -45 -174v-299z" />
<glyph unicode="&#xa5;" horiz-adv-x="1236" d="M45 1434h57l514 -844l517 844h55l-516 -848h340v-45h-369l-2 -4v-142h371v-45h-371v-350h-49v350h-367v45h367v142l-2 4h-365v45h336z" />
<glyph unicode="&#xa6;" horiz-adv-x="548" d="M250 348h49v-790h-49v790zM250 780v791h49v-791h-49z" />
<glyph unicode="&#xa7;" horiz-adv-x="1091" d="M139 119v39h49v-43q0 -133 64.5 -197.5t198.5 -64.5h176q135 0 198.5 67t63.5 213q0 174 -160 199l-338 53q-122 20 -179.5 79t-57.5 185q0 107 34.5 163t100.5 81q-121 55 -121 211q0 171 76 250.5t235 79.5h131q158 0 235 -77t77 -235v-41h-50v45q0 134 -64.5 198.5 t-197.5 64.5h-131q-135 0 -198.5 -67.5t-63.5 -215.5q0 -79 39 -133.5t121 -67.5l350 -53q120 -19 172.5 -76.5t52.5 -179.5q0 -100 -38 -170.5t-97 -79.5q61 -25 91 -72t30 -139q0 -169 -76 -248.5t-235 -79.5h-176q-158 0 -235 77t-77 235zM203 647q0 -105 47 -154 t141 -63l338 -53q83 -13 128.5 51.5t45.5 165.5q0 100 -41.5 149.5t-134.5 63.5l-350 53q-84 13 -129 -47t-45 -166z" />
<glyph unicode="&#xa8;" horiz-adv-x="1310" d="M475 1589v119h72v-119h-72zM766 1589v119h70v-119h-70z" />
<glyph unicode="&#xa9;" horiz-adv-x="1734" d="M209 311v811q0 158 76.5 235t234.5 77h690q158 0 235 -77t77 -235v-811q0 -158 -77 -234.5t-235 -76.5h-690q-158 0 -234.5 76.5t-76.5 234.5zM254 307q0 -135 65.5 -200.5t200.5 -65.5h690q135 0 201 65.5t66 200.5v819q0 135 -66 201t-201 66h-690q-135 0 -200.5 -66 t-65.5 -201v-819zM541 426v582q0 94 45 139t139 45h279q94 0 139 -45t45 -139v-119h-49v119q0 72 -34 105.5t-106 33.5h-270q-72 0 -105.5 -33.5t-33.5 -105.5v-582q0 -72 33.5 -105.5t105.5 -33.5h270q72 0 106 33.5t34 105.5v119h49v-119q0 -94 -45 -139t-139 -45h-279 q-94 0 -139 45t-45 139z" />
<glyph unicode="&#xaa;" horiz-adv-x="751" d="M102 918q0 59 11 96.5t39 60.5t63.5 34.5t95.5 20.5q116 17 289 35v88q0 72 -33.5 106t-105.5 34h-150q-72 0 -105.5 -34t-33.5 -106v-28h-45v24q0 95 44.5 140t139.5 45h150q95 0 139.5 -45t44.5 -140v-534h-45v92q-124 -100 -281 -100q-118 0 -167.5 47t-49.5 164z M123 520v41h522v-41h-522zM147 918q0 -97 38.5 -133.5t133.5 -36.5q148 0 281 100v285l-281 -41q-99 -14 -135.5 -47.5t-36.5 -126.5z" />
<glyph unicode="&#xab;" horiz-adv-x="688" d="M70 702v33l266 410h45l-270 -426l270 -424h-45zM279 702v33l266 410h45l-271 -426l271 -424h-45z" />
<glyph unicode="&#xad;" horiz-adv-x="815" d="M147 655v41h521v-41h-521z" />
<glyph unicode="&#xae;" horiz-adv-x="856" d="M133 881v397q0 156 154 156h286q79 0 116.5 -38t37.5 -118v-397q0 -156 -154 -156h-286q-154 0 -154 156zM174 877q0 -115 113 -115h286q113 0 113 115v405q0 115 -113 115h-286q-113 0 -113 -115v-405zM276 858v447h207q49 0 70.5 -21.5t21.5 -71.5v-77 q0 -47 -19.5 -69.5t-63.5 -23.5l94 -184h-45l-95 184h-129v-184h-41zM317 1079h168q26 0 38 11.5t12 37.5v91q0 26 -12 37.5t-38 11.5h-168v-189z" />
<glyph unicode="&#xaf;" horiz-adv-x="1200" d="M360 1585v45h496v-45h-496z" />
<glyph unicode="&#xb0;" horiz-adv-x="626" d="M139 1139v147q0 148 148 148h53q147 0 147 -148v-147q0 -148 -147 -148h-53q-148 0 -148 148zM184 1135q0 -103 103 -103h53q53 0 77.5 25t24.5 78v155q0 53 -24.5 78t-77.5 25h-53q-53 0 -78 -24.5t-25 -78.5v-155z" />
<glyph unicode="&#xb1;" horiz-adv-x="1044" d="M152 303v45h741v-45h-741zM152 805v45h346v362h49v-362h346v-45h-346v-363h-49v363h-346z" />
<glyph unicode="&#xb2;" horiz-adv-x="638" d="M80 971h491v41h-446v123q0 21 23 38t85 44l193 83q77 33 109 66t32 84v25q0 184 -184 184h-109q-184 0 -184 -184v-17h45v21q0 67 35.5 103t103.5 36h109q67 0 103 -36t36 -103v-29q0 -35 -21 -57t-75 -45l-193 -84q-85 -37 -119 -64.5t-34 -64.5v-164z" />
<glyph unicode="&#xb3;" horiz-adv-x="649" d="M70 1155v8h45v-12q0 -67 35.5 -103t103.5 -36h131q139 0 139 147q0 72 -35.5 109t-103.5 37h-166v41h158q68 0 104 35t35 102q-3 135 -139 135h-115q-68 0 -103.5 -36t-35.5 -103v-13h-45v9q0 184 184 184h115q184 0 184 -184q0 -59 -27.5 -98.5t-62.5 -51.5 q37 -5 67.5 -50.5t30.5 -115.5q0 -188 -184 -188h-131q-184 0 -184 184z" />
<glyph unicode="&#xb4;" horiz-adv-x="1472" d="M606 1589l189 295h61l-201 -295h-49z" />
<glyph unicode="&#xb6;" horiz-adv-x="1378" d="M145 893v229q0 158 77 235t235 77h704v-1434h-49v1389h-127v-1389h-49v582h-479q-158 0 -235 76.5t-77 234.5z" />
<glyph unicode="&#xb7;" horiz-adv-x="450" d="M188 625v118h78v-118h-78z" />
<glyph unicode="&#xb8;" horiz-adv-x="1157" d="M279 -242h110q83 0 111 24.5t28 111.5v106h50v-102q0 -105 -38 -145t-143 -40h-78z" />
<glyph unicode="&#xb9;" horiz-adv-x="372" d="M66 1559v43l145 53h39v-688h-45v641z" />
<glyph unicode="&#xba;" horiz-adv-x="761" d="M106 899v350q0 95 45 140t140 45h180q95 0 139.5 -45t44.5 -140v-350q0 -95 -44.5 -139.5t-139.5 -44.5h-180q-95 0 -140 44.5t-45 139.5zM123 520v41h516v-41h-516zM152 895q0 -72 33.5 -105.5t105.5 -33.5h180q72 0 105.5 33.5t33.5 105.5v358q0 72 -33.5 106 t-105.5 34h-180q-72 0 -105.5 -34t-33.5 -106v-358z" />
<glyph unicode="&#xbb;" horiz-adv-x="684" d="M98 295l271 424l-271 426h45l267 -410v-33l-267 -407h-45zM303 295l270 424l-270 426h45l266 -410v-33l-266 -407h-45z" />
<glyph unicode="&#xbc;" horiz-adv-x="1130" d="M66 0l757 1434h45l-757 -1434h-45zM66 1337v43l145 54h39v-689h-45v641zM496 186v29l419 473h43v-461h113v-41h-113v-186h-45v186h-417zM559 227h354v398z" />
<glyph unicode="&#xbd;" horiz-adv-x="1200" d="M66 0l757 1434h45l-757 -1434h-45zM66 1337v43l145 54h39v-689h-45v641zM641 0h492v41h-447v123q0 21 23 38t86 44l192 84q77 33 109 65.5t32 83.5v25q0 184 -184 184h-108q-91 0 -138 -46.5t-47 -137.5v-17h45v21q0 67 36 103t104 36h108q68 0 103.5 -35.5t35.5 -103.5 v-29q0 -35 -21 -57t-75 -45l-192 -84q-85 -37 -119.5 -64.5t-34.5 -64.5v-164z" />
<glyph unicode="&#xbe;" horiz-adv-x="1406" d="M70 930v8h45v-12q0 -68 36 -104t103 -36h131q139 0 139 148q0 145 -139 145h-166v41h158q68 0 104 35t35 102q-3 136 -139 136h-115q-67 0 -103 -36t-36 -104v-12h-45v8q0 91 46.5 138t137.5 47h115q91 0 137.5 -47t46.5 -138q0 -59 -27 -98t-63 -51q37 -5 67.5 -50.5 t30.5 -115.5q0 -189 -184 -189h-131q-91 0 -137.5 47t-46.5 138zM342 0l758 1434h45l-758 -1434h-45zM772 186v29l420 473h43v-461h113v-41h-113v-186h-45v186h-418zM836 227h354v398z" />
<glyph unicode="&#xbf;" horiz-adv-x="1132" d="M119 -16v43q0 105 51 159.5t221 139.5l37 18q130 64 176.5 111.5t46.5 138.5v164h49v-164q0 -73 -23.5 -119t-77.5 -84.5t-171 -97.5l-37 -19q-54 -27 -84.5 -44t-61.5 -39t-45 -44t-23 -51.5t-9 -68.5v-47q0 -134 64.5 -198.5t197.5 -64.5h313q133 0 198 64.5t65 198.5 v92h49v-88q0 -158 -77 -235t-235 -77h-313q-158 0 -234.5 77t-76.5 235zM647 932v174h49v-174h-49z" />
<glyph unicode="&#xc0;" d="M82 0l551 1434h53l551 -1434h-55l-162 422h-721l-162 -422h-55zM315 467h689l-345 903zM477 1884h62l192 -295h-49z" />
<glyph unicode="&#xc1;" d="M82 0l551 1434h53l551 -1434h-55l-162 422h-721l-162 -422h-55zM315 467h689l-345 903zM592 1589l188 295h62l-201 -295h-49z" />
<glyph unicode="&#xc2;" d="M82 0l551 1434h53l551 -1434h-55l-162 422h-721l-162 -422h-55zM315 467h689l-345 903zM420 1589l219 234h41l219 -234h-59l-181 193l-180 -193h-59z" />
<glyph unicode="&#xc3;" d="M82 0l551 1434h53l551 -1434h-55l-162 422h-721l-162 -422h-55zM315 467h689l-345 903zM375 1569v35q0 176 141 176q39 0 68.5 -13.5t46 -34.5t34 -44.5t32 -44.5t39.5 -34.5t57 -13.5q98 0 98 125v43h47v-34q0 -177 -143 -177q-41 0 -73 13.5t-50 34.5t-35.5 44.5 t-31 44.5t-36 34.5t-51.5 13.5q-96 0 -96 -125v-43h-47z" />
<glyph unicode="&#xc4;" d="M82 0l551 1434h53l551 -1434h-55l-162 422h-721l-162 -422h-55zM315 467h689l-345 903zM477 1589v119h72v-119h-72zM768 1589v119h70v-119h-70z" />
<glyph unicode="&#xc5;" d="M82 0l551 1434h53l551 -1434h-55l-162 422h-721l-162 -422h-55zM315 467h689l-345 903zM510 1692v82q0 52 25 77t77 25h95q54 0 78 -24t24 -78v-82q0 -53 -24.5 -78t-77.5 -25h-95q-102 0 -102 103zM555 1692q0 -34 14.5 -48t46.5 -14h86q62 0 62 62v82q0 33 -14.5 47 t-47.5 14h-86q-34 0 -47.5 -13.5t-13.5 -47.5v-82z" />
<glyph unicode="&#xc6;" horiz-adv-x="1984" d="M37 0l837 1434h990v-45h-822v-631h707v-45h-707v-668h822v-45h-871v496h-610l-291 -496h-55zM410 541h583v848h-88z" />
<glyph unicode="&#xc7;" horiz-adv-x="1288" d="M182 311v811q0 158 77 235t235 77h327q158 0 235 -77t77 -235v-78h-50v82q0 134 -64.5 198.5t-197.5 64.5h-327q-134 0 -198.5 -64.5t-64.5 -198.5v-819q0 -133 64.5 -197.5t198.5 -64.5h327q133 0 197.5 64.5t64.5 197.5v82h50v-78q0 -158 -77 -234.5t-235 -76.5h-121 v-102q0 -105 -37.5 -145t-142.5 -40h-78l-41 45h111q83 0 111 24.5t28 111.5v106h-157q-158 0 -235 76.5t-77 234.5z" />
<glyph unicode="&#xc8;" horiz-adv-x="1208" d="M217 0v1434h870v-45h-821v-631h707v-45h-707v-668h821v-45h-870zM489 1884l205 -295h49l-192 295h-62z" />
<glyph unicode="&#xc9;" horiz-adv-x="1208" d="M217 0v1434h870v-45h-821v-631h707v-45h-707v-668h821v-45h-870zM604 1589l189 295h61l-201 -295h-49z" />
<glyph unicode="&#xca;" horiz-adv-x="1208" d="M217 0v1434h870v-45h-821v-631h707v-45h-707v-668h821v-45h-870zM432 1589h60l180 193l180 -193h59l-219 234h-41z" />
<glyph unicode="&#xcb;" horiz-adv-x="1208" d="M217 0v1434h870v-45h-821v-631h707v-45h-707v-668h821v-45h-870zM489 1589v119h72v-119h-72zM780 1589v119h70v-119h-70z" />
<glyph unicode="&#xcc;" horiz-adv-x="483" d="M59 1884l205 -295h49l-192 295h-62zM217 0v1434h49v-1434h-49z" />
<glyph unicode="&#xcd;" horiz-adv-x="483" d="M174 1589l188 295h62l-201 -295h-49zM217 0v1434h49v-1434h-49z" />
<glyph unicode="&#xce;" horiz-adv-x="483" d="M2 1589h59l181 193l180 -193h59l-219 234h-41zM217 0v1434h49v-1434h-49z" />
<glyph unicode="&#xcf;" horiz-adv-x="483" d="M59 1589v119h72v-119h-72zM217 0v1434h49v-1434h-49zM350 1589v119h70v-119h-70z" />
<glyph unicode="&#xd0;" horiz-adv-x="1363" d="M27 725v45h190v664h653q158 0 235 -77t77 -235v-811q0 -158 -77 -234.5t-235 -76.5h-653v725h-190zM266 45h604q134 0 198.5 64.5t64.5 197.5v819q0 134 -64.5 198.5t-198.5 64.5h-604v-619h219v-45h-219v-680z" />
<glyph unicode="&#xd1;" horiz-adv-x="1437" d="M217 0v1434h43l911 -1340v1340h50v-1434h-43l-912 1341v-1341h-49zM434 1569h47v43q0 125 97 125q34 0 58.5 -19t42 -46t37 -54.5t54.5 -46.5t84 -19q143 0 143 177v34h-47v-43q0 -125 -98 -125q-38 0 -65.5 19t-45 46t-36.5 54.5t-51.5 46.5t-78.5 19q-141 0 -141 -176 v-35z" />
<glyph unicode="&#xd2;" horiz-adv-x="1357" d="M182 311v811q0 158 77 235t235 77h370q158 0 235 -77t77 -235v-811q0 -158 -77 -234.5t-235 -76.5h-370q-158 0 -235 76.5t-77 234.5zM231 307q0 -133 64.5 -197.5t198.5 -64.5h370q134 0 198 64.5t64 197.5v819q0 134 -64.5 198.5t-197.5 64.5h-370q-134 0 -198.5 -64.5 t-64.5 -198.5v-819zM498 1884l204 -295h50l-193 295h-61z" />
<glyph unicode="&#xd3;" horiz-adv-x="1357" d="M182 311v811q0 158 77 235t235 77h370q158 0 235 -77t77 -235v-811q0 -158 -77 -234.5t-235 -76.5h-370q-158 0 -235 76.5t-77 234.5zM231 307q0 -133 64.5 -197.5t198.5 -64.5h370q134 0 198 64.5t64 197.5v819q0 134 -64.5 198.5t-197.5 64.5h-370q-134 0 -198.5 -64.5 t-64.5 -198.5v-819zM612 1589l189 295h61l-200 -295h-50z" />
<glyph unicode="&#xd4;" horiz-adv-x="1357" d="M182 311v811q0 158 77 235t235 77h370q158 0 235 -77t77 -235v-811q0 -158 -77 -234.5t-235 -76.5h-370q-158 0 -235 76.5t-77 234.5zM231 307q0 -133 64.5 -197.5t198.5 -64.5h370q134 0 198 64.5t64 197.5v819q0 134 -64.5 198.5t-197.5 64.5h-370q-134 0 -198.5 -64.5 t-64.5 -198.5v-819zM440 1589h60l180 193l180 -193h60l-220 234h-41z" />
<glyph unicode="&#xd5;" horiz-adv-x="1357" d="M182 311v811q0 158 77 235t235 77h370q158 0 235 -77t77 -235v-811q0 -158 -77 -234.5t-235 -76.5h-370q-158 0 -235 76.5t-77 234.5zM231 307q0 -133 64.5 -197.5t198.5 -64.5h370q134 0 198 64.5t64 197.5v819q0 134 -64.5 198.5t-197.5 64.5h-370q-134 0 -198.5 -64.5 t-64.5 -198.5v-819zM395 1569h47v43q0 125 97 125q34 0 58.5 -19t42 -46t37 -54.5t54.5 -46.5t84 -19q143 0 143 177v34h-47v-43q0 -125 -98 -125q-38 0 -65.5 19t-45 46t-36 54.5t-51 46.5t-78.5 19q-142 0 -142 -176v-35z" />
<glyph unicode="&#xd6;" horiz-adv-x="1357" d="M182 311v811q0 158 77 235t235 77h370q158 0 235 -77t77 -235v-811q0 -158 -77 -234.5t-235 -76.5h-370q-158 0 -235 76.5t-77 234.5zM231 307q0 -133 64.5 -197.5t198.5 -64.5h370q134 0 198 64.5t64 197.5v819q0 134 -64.5 198.5t-197.5 64.5h-370q-134 0 -198.5 -64.5 t-64.5 -198.5v-819zM498 1589v119h71v-119h-71zM788 1589v119h70v-119h-70z" />
<glyph unicode="&#xd7;" horiz-adv-x="1040" d="M197 383l295 301l-295 295l32 29l293 -293l295 301l33 -33l-295 -301l295 -295l-33 -29l-293 293l-295 -301z" />
<glyph unicode="&#xd8;" horiz-adv-x="1357" d="M182 311v811q0 158 77 235t235 77h370q75 0 137 -19l58 117h55l-67 -135q129 -71 129 -275v-811q0 -158 -77 -234.5t-235 -76.5h-370q-80 0 -138 18l-57 -114h-51l65 133q-131 67 -131 274zM231 307q0 -170 105 -227l643 1292q-56 17 -115 17h-370q-134 0 -198.5 -64.5 t-64.5 -198.5v-819zM377 61q53 -16 117 -16h370q134 0 198 64.5t64 197.5v819q0 166 -102 228z" />
<glyph unicode="&#xd9;" horiz-adv-x="1347" d="M199 311v1123h49v-1127q0 -133 64 -197.5t198 -64.5h328q134 0 198 64.5t64 197.5v1127h49v-1123q0 -158 -76.5 -234.5t-234.5 -76.5h-328q-158 0 -234.5 76.5t-76.5 234.5zM492 1884l204 -295h49l-192 295h-61z" />
<glyph unicode="&#xda;" horiz-adv-x="1347" d="M199 311v1123h49v-1127q0 -133 64 -197.5t198 -64.5h328q134 0 198 64.5t64 197.5v1127h49v-1123q0 -158 -76.5 -234.5t-234.5 -76.5h-328q-158 0 -234.5 76.5t-76.5 234.5zM606 1589l189 295h61l-201 -295h-49z" />
<glyph unicode="&#xdb;" horiz-adv-x="1347" d="M199 311v1123h49v-1127q0 -133 64 -197.5t198 -64.5h328q134 0 198 64.5t64 197.5v1127h49v-1123q0 -158 -76.5 -234.5t-234.5 -76.5h-328q-158 0 -234.5 76.5t-76.5 234.5zM434 1589h60l180 193l180 -193h59l-219 234h-41z" />
<glyph unicode="&#xdc;" horiz-adv-x="1347" d="M199 311v1123h49v-1127q0 -133 64 -197.5t198 -64.5h328q134 0 198 64.5t64 197.5v1127h49v-1123q0 -158 -76.5 -234.5t-234.5 -76.5h-328q-158 0 -234.5 76.5t-76.5 234.5zM492 1589v119h71v-119h-71zM782 1589v119h70v-119h-70z" />
<glyph unicode="&#xdd;" horiz-adv-x="1236" d="M45 1434h57l514 -844l517 844h55l-547 -897v-537h-49v537zM549 1589l188 295h62l-201 -295h-49z" />
<glyph unicode="&#xde;" horiz-adv-x="1298" d="M217 0v1434h49v-267h590q158 0 234.5 -76.5t76.5 -234.5v-217q0 -158 -76.5 -234.5t-234.5 -76.5h-590v-328h-49zM266 373h590q134 0 198 64.5t64 197.5v225q0 134 -64 198t-198 64h-590v-749z" />
<glyph unicode="&#xdf;" horiz-adv-x="1114" d="M168 0v1200q0 150 73 222.5t222 72.5h205q154 0 224.5 -82.5t70.5 -290.5q0 -306 -152 -350q168 -32 168 -375q0 -115 -18 -192.5t-56 -122.5t-91 -63.5t-130 -18.5h-295v45h291q88 0 140.5 29.5t81 107.5t28.5 215q0 190 -50.5 270.5t-174.5 80.5h-254v45h258 q112 0 158 83t46 246q0 95 -15 159t-47 101t-77 52.5t-110 15.5h-197q-126 0 -188 -61.5t-62 -188.5v-1200h-49z" />
<glyph unicode="&#xe0;" horiz-adv-x="1103" d="M131 303q0 149 70.5 215t224.5 86l459 60v147q0 127 -62 188.5t-188 61.5h-164q-126 0 -188 -61.5t-62 -188.5v-18h-49v18q0 150 73 222.5t222 72.5h172q149 0 222 -72.5t73 -222.5v-811h-49v156q-96 -90 -187.5 -127t-228.5 -37q-178 0 -258 76t-80 235zM180 303 q0 -136 68.5 -201t222.5 -65q128 0 220 37.5t194 126.5v424l-455 -62q-132 -18 -191 -75.5t-59 -184.5zM391 1556l205 -294h49l-192 294h-62z" />
<glyph unicode="&#xe1;" horiz-adv-x="1103" d="M131 303q0 149 70.5 215t224.5 86l459 60v147q0 127 -62 188.5t-188 61.5h-164q-126 0 -188 -61.5t-62 -188.5v-18h-49v18q0 150 73 222.5t222 72.5h172q149 0 222 -72.5t73 -222.5v-811h-49v156q-96 -90 -187.5 -127t-228.5 -37q-178 0 -258 76t-80 235zM180 303 q0 -136 68.5 -201t222.5 -65q128 0 220 37.5t194 126.5v424l-455 -62q-132 -18 -191 -75.5t-59 -184.5zM506 1262l188 294h62l-201 -294h-49z" />
<glyph unicode="&#xe2;" horiz-adv-x="1103" d="M131 303q0 149 70.5 215t224.5 86l459 60v147q0 127 -62 188.5t-188 61.5h-164q-126 0 -188 -61.5t-62 -188.5v-18h-49v18q0 150 73 222.5t222 72.5h172q149 0 222 -72.5t73 -222.5v-811h-49v156q-96 -90 -187.5 -127t-228.5 -37q-178 0 -258 76t-80 235zM180 303 q0 -136 68.5 -201t222.5 -65q128 0 220 37.5t194 126.5v424l-455 -62q-132 -18 -191 -75.5t-59 -184.5zM334 1262h59l180 192l181 -192h59l-219 233h-41z" />
<glyph unicode="&#xe3;" horiz-adv-x="1103" d="M131 303q0 149 70.5 215t224.5 86l459 60v147q0 127 -62 188.5t-188 61.5h-164q-126 0 -188 -61.5t-62 -188.5v-18h-49v18q0 150 73 222.5t222 72.5h172q149 0 222 -72.5t73 -222.5v-811h-49v156q-96 -90 -187.5 -127t-228.5 -37q-178 0 -258 76t-80 235zM180 303 q0 -136 68.5 -201t222.5 -65q128 0 220 37.5t194 126.5v424l-455 -62q-132 -18 -191 -75.5t-59 -184.5zM289 1241h47v43q0 125 96 125q34 0 58.5 -19t42 -46t37.5 -54t55 -46t84 -19q143 0 143 176v35h-47v-43q0 -125 -98 -125q-38 0 -65.5 19t-45 46t-36.5 54t-51.5 46 t-78.5 19q-141 0 -141 -176v-35z" />
<glyph unicode="&#xe4;" horiz-adv-x="1103" d="M131 303q0 149 70.5 215t224.5 86l459 60v147q0 127 -62 188.5t-188 61.5h-164q-126 0 -188 -61.5t-62 -188.5v-18h-49v18q0 150 73 222.5t222 72.5h172q149 0 222 -72.5t73 -222.5v-811h-49v156q-96 -90 -187.5 -127t-228.5 -37q-178 0 -258 76t-80 235zM180 303 q0 -136 68.5 -201t222.5 -65q128 0 220 37.5t194 126.5v424l-455 -62q-132 -18 -191 -75.5t-59 -184.5zM391 1262v118h72v-118h-72zM682 1262v118h70v-118h-70z" />
<glyph unicode="&#xe5;" horiz-adv-x="1103" d="M131 303q0 149 70.5 215t224.5 86l459 60v147q0 127 -62 188.5t-188 61.5h-164q-126 0 -188 -61.5t-62 -188.5v-18h-49v18q0 150 73 222.5t222 72.5h172q149 0 222 -72.5t73 -222.5v-811h-49v156q-96 -90 -187.5 -127t-228.5 -37q-178 0 -258 76t-80 235zM180 303 q0 -136 68.5 -201t222.5 -65q128 0 220 37.5t194 126.5v424l-455 -62q-132 -18 -191 -75.5t-59 -184.5zM424 1364v82q0 52 25 77t77 25h95q54 0 78 -24t24 -78v-82q0 -53 -24 -77.5t-78 -24.5h-95q-52 0 -77 25t-25 77zM469 1364q0 -33 14 -47t47 -14h86q32 0 47 14.5 t15 46.5v82q0 33 -14.5 47t-47.5 14h-86q-34 0 -47.5 -13.5t-13.5 -47.5v-82z" />
<glyph unicode="&#xe6;" horiz-adv-x="1839" d="M131 303q0 149 70.5 214.5t224.5 86.5q323 44 459 60v147q0 127 -62 188.5t-188 61.5h-164q-126 0 -188 -61.5t-62 -188.5v-18h-49v18q0 150 73 222.5t222 72.5h172q209 0 270 -148q61 148 271 148h221q149 0 222 -72.5t73 -222.5v-254h-762v-262q0 -127 61 -188.5 t189 -61.5h213q127 0 188.5 61.5t61.5 188.5v47h49v-47q0 -150 -73 -222.5t-222 -72.5h-221q-228 0 -279 174q-94 -97 -194.5 -139.5t-237.5 -42.5q-178 0 -258 76t-80 235zM180 303q0 -136 68.5 -201t222.5 -65q126 0 218 40t196 132v416l-455 -62q-132 -18 -191 -75.5 t-59 -184.5zM934 602h713v209q0 250 -250 250h-213q-127 0 -188.5 -62t-61.5 -188v-209z" />
<glyph unicode="&#xe7;" horiz-adv-x="1064" d="M152 295v516q0 150 73 222.5t221 72.5h205q149 0 222 -72.5t73 -222.5v-25h-49v25q0 250 -250 250h-196q-127 0 -188.5 -62t-61.5 -188v-516q0 -127 61.5 -188.5t188.5 -61.5h196q127 0 188.5 61.5t61.5 188.5v24h49v-24q0 -150 -73 -222.5t-222 -72.5h-76v-102 q0 -105 -37.5 -145t-142.5 -40h-78l-41 45h111q83 0 111 24.5t28 111.5v106h-80q-148 0 -221 72.5t-73 222.5z" />
<glyph unicode="&#xe8;" horiz-adv-x="1105" d="M152 295v516q0 150 73 222.5t221 72.5h222q149 0 222 -72.5t73 -222.5v-254h-762v-262q0 -126 61.5 -188t188.5 -62h213q127 0 188 61t61 189v47h50v-47q0 -150 -73 -222.5t-222 -72.5h-222q-148 0 -221 72.5t-73 222.5zM201 602h712v209q0 250 -249 250h-213 q-127 0 -188.5 -62t-61.5 -188v-209zM383 1556h61l193 -294h-49z" />
<glyph unicode="&#xe9;" horiz-adv-x="1105" d="M152 295v516q0 150 73 222.5t221 72.5h222q149 0 222 -72.5t73 -222.5v-254h-762v-262q0 -126 61.5 -188t188.5 -62h213q127 0 188 61t61 189v47h50v-47q0 -150 -73 -222.5t-222 -72.5h-222q-148 0 -221 72.5t-73 222.5zM201 602h712v209q0 250 -249 250h-213 q-127 0 -188.5 -62t-61.5 -188v-209zM498 1262l188 294h62l-201 -294h-49z" />
<glyph unicode="&#xea;" horiz-adv-x="1105" d="M152 295v516q0 150 73 222.5t221 72.5h222q149 0 222 -72.5t73 -222.5v-254h-762v-262q0 -126 61.5 -188t188.5 -62h213q127 0 188 61t61 189v47h50v-47q0 -150 -73 -222.5t-222 -72.5h-222q-148 0 -221 72.5t-73 222.5zM201 602h712v209q0 250 -249 250h-213 q-127 0 -188.5 -62t-61.5 -188v-209zM326 1262l219 233h41l219 -233h-60l-180 192l-180 -192h-59z" />
<glyph unicode="&#xeb;" horiz-adv-x="1105" d="M152 295v516q0 150 73 222.5t221 72.5h222q149 0 222 -72.5t73 -222.5v-254h-762v-262q0 -126 61.5 -188t188.5 -62h213q127 0 188 61t61 189v47h50v-47q0 -150 -73 -222.5t-222 -72.5h-222q-148 0 -221 72.5t-73 222.5zM201 602h712v209q0 250 -249 250h-213 q-127 0 -188.5 -62t-61.5 -188v-209zM383 1262v118h72v-118h-72zM674 1262v118h69v-118h-69z" />
<glyph unicode="&#xec;" horiz-adv-x="438" d="M35 1536l205 -295h49l-193 295h-61zM197 0v1106h49v-1106h-49z" />
<glyph unicode="&#xed;" horiz-adv-x="438" d="M176 1241l189 295h61l-201 -295h-49zM197 0v1106h49v-1106h-49z" />
<glyph unicode="&#xee;" horiz-adv-x="438" d="M-20 1262h59l180 192l180 -192h60l-219 233h-41zM197 0v1106h49v-1106h-49z" />
<glyph unicode="&#xef;" horiz-adv-x="442" d="M41 1303v118h72v-118h-72zM197 0v1106h49v-1106h-49zM332 1303v118h69v-118h-69z" />
<glyph unicode="&#xf0;" horiz-adv-x="1126" d="M152 295v393q0 153 81.5 224t266.5 71q144 0 237 -37t189 -127v213q0 45 -14 77.5t-44.5 56t-61.5 38t-81 31.5l-205 68l-172 -152h-67l190 168l-223 74v45l260 -84l170 149h67l-186 -166l170 -55q41 -13 67.5 -23.5t64 -31t59.5 -42.5t38.5 -56.5t16.5 -75.5v-758 q0 -150 -73 -222.5t-222 -72.5h-234q-148 0 -221 72.5t-73 222.5zM201 295q0 -127 61.5 -188.5t188.5 -61.5h225q128 0 189 61.5t61 188.5v479q-102 90 -195.5 127t-228.5 37q-162 0 -231.5 -60t-69.5 -190v-393z" />
<glyph unicode="&#xf1;" horiz-adv-x="1140" d="M176 0v1106h49v-152q96 90 187 127t225 37q175 0 254.5 -71.5t79.5 -223.5v-823h-49v823q0 129 -67.5 189.5t-219.5 60.5q-125 0 -216.5 -37.5t-193.5 -126.5v-909h-49zM299 1241h47v43q0 125 96 125q34 0 58.5 -19t42 -46t37.5 -54t55 -46t84 -19q143 0 143 176v35h-47 v-43q0 -125 -98 -125q-38 0 -65.5 19t-45 46t-36.5 54t-51.5 46t-78.5 19q-141 0 -141 -176v-35z" />
<glyph unicode="&#xf2;" horiz-adv-x="1120" d="M152 295v516q0 150 73 222.5t221 72.5h228q149 0 222 -72.5t73 -222.5v-516q0 -150 -73 -222.5t-222 -72.5h-228q-148 0 -221 72.5t-73 222.5zM201 295q0 -127 61.5 -188.5t188.5 -61.5h219q128 0 189 61.5t61 188.5v516q0 127 -61 188.5t-189 61.5h-219 q-127 0 -188.5 -61.5t-61.5 -188.5v-516zM379 1556l205 -294h49l-193 294h-61z" />
<glyph unicode="&#xf3;" horiz-adv-x="1120" d="M152 295v516q0 150 73 222.5t221 72.5h228q149 0 222 -72.5t73 -222.5v-516q0 -150 -73 -222.5t-222 -72.5h-228q-148 0 -221 72.5t-73 222.5zM201 295q0 -127 61.5 -188.5t188.5 -61.5h219q128 0 189 61.5t61 188.5v516q0 127 -61 188.5t-189 61.5h-219 q-127 0 -188.5 -61.5t-61.5 -188.5v-516zM494 1262l188 294h61l-200 -294h-49z" />
<glyph unicode="&#xf4;" horiz-adv-x="1120" d="M152 295v516q0 150 73 222.5t221 72.5h228q149 0 222 -72.5t73 -222.5v-516q0 -150 -73 -222.5t-222 -72.5h-228q-148 0 -221 72.5t-73 222.5zM201 295q0 -127 61.5 -188.5t188.5 -61.5h219q128 0 189 61.5t61 188.5v516q0 127 -61 188.5t-189 61.5h-219 q-127 0 -188.5 -61.5t-61.5 -188.5v-516zM322 1262h59l180 192l180 -192h60l-219 233h-41z" />
<glyph unicode="&#xf5;" horiz-adv-x="1120" d="M152 295v516q0 150 73 222.5t221 72.5h228q149 0 222 -72.5t73 -222.5v-516q0 -150 -73 -222.5t-222 -72.5h-228q-148 0 -221 72.5t-73 222.5zM201 295q0 -127 61.5 -188.5t188.5 -61.5h219q128 0 189 61.5t61 188.5v516q0 127 -61 188.5t-189 61.5h-219 q-127 0 -188.5 -61.5t-61.5 -188.5v-516zM276 1241h48v43q0 125 96 125q34 0 58.5 -19t42 -46t37 -54t54.5 -46t84 -19q144 0 144 176v35h-47v-43q0 -125 -99 -125q-38 0 -65.5 19t-45 46t-36 54t-51 46t-78.5 19q-142 0 -142 -176v-35z" />
<glyph unicode="&#xf6;" horiz-adv-x="1120" d="M152 295v516q0 150 73 222.5t221 72.5h228q149 0 222 -72.5t73 -222.5v-516q0 -150 -73 -222.5t-222 -72.5h-228q-148 0 -221 72.5t-73 222.5zM201 295q0 -127 61.5 -188.5t188.5 -61.5h219q128 0 189 61.5t61 188.5v516q0 127 -61 188.5t-189 61.5h-219 q-127 0 -188.5 -61.5t-61.5 -188.5v-516zM379 1262v118h72v-118h-72zM670 1262v118h69v-118h-69z" />
<glyph unicode="&#xf7;" horiz-adv-x="1040" d="M176 735v45h688v-45h-688zM467 436v107h102v-107h-102zM467 973v106h102v-106h-102z" />
<glyph unicode="&#xf8;" horiz-adv-x="1120" d="M152 295v516q0 150 73 222.5t221 72.5h228q70 0 119 -14l63 129h51l-69 -146q131 -64 131 -264v-516q0 -150 -73 -222.5t-222 -72.5h-228q-71 0 -120 14l-62 -127h-51l70 146q-131 61 -131 262zM201 295q0 -165 102 -219l469 973q-44 12 -102 12h-219 q-127 0 -188.5 -61.5t-61.5 -188.5v-516zM346 57q46 -12 105 -12h219q128 0 189 61.5t61 188.5v516q0 163 -105 219z" />
<glyph unicode="&#xf9;" horiz-adv-x="1140" d="M170 283v823h49v-823q0 -129 67.5 -189.5t219.5 -60.5q125 0 216 37.5t193 126.5v909h50v-1106h-50v152q-96 -90 -186.5 -127t-224.5 -37q-175 0 -254.5 71.5t-79.5 223.5zM385 1556l205 -294h49l-193 294h-61z" />
<glyph unicode="&#xfa;" horiz-adv-x="1140" d="M170 283v823h49v-823q0 -129 67.5 -189.5t219.5 -60.5q125 0 216 37.5t193 126.5v909h50v-1106h-50v152q-96 -90 -186.5 -127t-224.5 -37q-175 0 -254.5 71.5t-79.5 223.5zM500 1262l188 294h62l-201 -294h-49z" />
<glyph unicode="&#xfb;" horiz-adv-x="1140" d="M170 283v823h49v-823q0 -129 67.5 -189.5t219.5 -60.5q125 0 216 37.5t193 126.5v909h50v-1106h-50v152q-96 -90 -186.5 -127t-224.5 -37q-175 0 -254.5 71.5t-79.5 223.5zM328 1262h59l180 192l181 -192h59l-219 233h-41z" />
<glyph unicode="&#xfc;" horiz-adv-x="1140" d="M170 283v823h49v-823q0 -129 67.5 -189.5t219.5 -60.5q125 0 216 37.5t193 126.5v909h50v-1106h-50v152q-96 -90 -186.5 -127t-224.5 -37q-175 0 -254.5 71.5t-79.5 223.5zM385 1262v118h72v-118h-72zM676 1262v118h69v-118h-69z" />
<glyph unicode="&#xfd;" horiz-adv-x="978" d="M49 1106h51l392 -1043l387 1043h51l-539 -1434h-51l127 328zM422 1262l188 294h62l-201 -294h-49z" />
<glyph unicode="&#xfe;" horiz-adv-x="1150" d="M176 -328v1823h49v-541q96 90 189 127t237 37q185 0 266.5 -71t81.5 -224v-540q0 -153 -81.5 -224t-266.5 -71q-144 0 -237 37t-189 127v-480h-49zM225 197q102 -90 195.5 -127t228.5 -37q162 0 231.5 60t69.5 190v540q0 130 -69.5 190t-231.5 60q-135 0 -228.5 -37 t-195.5 -127v-712z" />
<glyph unicode="&#xff;" horiz-adv-x="978" d="M49 1106h51l392 -1043l387 1043h51l-539 -1434h-51l127 328zM307 1262v118h72v-118h-72zM598 1262v118h70v-118h-70z" />
<glyph unicode="&#x152;" horiz-adv-x="2117" d="M182 311v811q0 158 77 235t235 77h1503v-45h-821v-631h706v-45h-706v-668h821v-45h-1503q-158 0 -235 76.5t-77 234.5zM231 307q0 -133 64.5 -197.5t198.5 -64.5h632v1344h-632q-134 0 -198.5 -64.5t-64.5 -198.5v-819z" />
<glyph unicode="&#x153;" horiz-adv-x="1873" d="M152 295v516q0 150 73 222.5t221 72.5h228q212 0 270 -156q58 156 270 156h222q149 0 222 -72.5t73 -222.5v-254h-762v-262q0 -126 61.5 -188t188.5 -62h213q127 0 188 61t61 189v47h50v-47q0 -150 -73 -222.5t-222 -72.5h-222q-212 0 -270 156q-58 -156 -270 -156h-228 q-148 0 -221 72.5t-73 222.5zM201 295q0 -127 61.5 -188.5t188.5 -61.5h219q128 0 189 61.5t61 188.5v516q0 127 -61 188.5t-189 61.5h-219q-127 0 -188.5 -61.5t-61.5 -188.5v-516zM969 602h712v209q0 250 -249 250h-213q-127 0 -188.5 -62t-61.5 -188v-209z" />
<glyph unicode="&#x178;" horiz-adv-x="1236" d="M45 1434h57l514 -844l517 844h55l-547 -897v-537h-49v537zM434 1589v119h72v-119h-72zM725 1589v119h70v-119h-70z" />
<glyph unicode="&#x2c6;" horiz-adv-x="1351" d="M438 1589h60l180 193l180 -193h60l-220 234h-41z" />
<glyph unicode="&#x2dc;" horiz-adv-x="1249" d="M342 1569h47v43q0 125 96 125q34 0 58.5 -19t42 -46t37.5 -54.5t55 -46.5t84 -19q143 0 143 177v34h-47v-43q0 -125 -98 -125q-38 0 -65.5 19t-45 46t-36.5 54.5t-51.5 46.5t-78.5 19q-141 0 -141 -176v-35z" />
<glyph unicode="&#x2000;" horiz-adv-x="942" />
<glyph unicode="&#x2001;" horiz-adv-x="1884" />
<glyph unicode="&#x2002;" horiz-adv-x="942" />
<glyph unicode="&#x2003;" horiz-adv-x="1884" />
<glyph unicode="&#x2004;" horiz-adv-x="628" />
<glyph unicode="&#x2005;" horiz-adv-x="471" />
<glyph unicode="&#x2006;" horiz-adv-x="314" />
<glyph unicode="&#x2007;" horiz-adv-x="314" />
<glyph unicode="&#x2008;" horiz-adv-x="235" />
<glyph unicode="&#x2009;" horiz-adv-x="376" />
<glyph unicode="&#x200a;" horiz-adv-x="104" />
<glyph unicode="&#x2010;" horiz-adv-x="815" d="M147 655v41h521v-41h-521z" />
<glyph unicode="&#x2011;" horiz-adv-x="815" d="M147 655v41h521v-41h-521z" />
<glyph unicode="&#x2012;" horiz-adv-x="815" d="M147 655v41h521v-41h-521z" />
<glyph unicode="&#x2013;" horiz-adv-x="1134" d="M147 659v41h840v-41h-840z" />
<glyph unicode="&#x2014;" horiz-adv-x="1675" d="M147 655v41h1381v-41h-1381z" />
<glyph unicode="&#x2018;" horiz-adv-x="421" d="M172 1079v90q0 14 1.5 26t7 29t8 25t14 36t16.5 40l43 109h23l-82 -236h47v-119h-78z" />
<glyph unicode="&#x2019;" horiz-adv-x="421" d="M137 1079l82 236h-47v119h78v-91q0 -14 -1.5 -26t-6.5 -28.5t-8.5 -25.5t-14 -35t-16.5 -40l-43 -109h-23z" />
<glyph unicode="&#x201a;" horiz-adv-x="421" d="M137 -236l82 236h-47v119h78v-90q0 -14 -1.5 -26t-7 -29t-8 -25t-14 -36t-16.5 -40l-43 -109h-23z" />
<glyph unicode="&#x201c;" horiz-adv-x="655" d="M172 1079v90q0 14 1.5 26t7 29t8 25t14 36t16.5 40l43 109h23l-82 -236h47v-119h-78zM406 1079v90q0 14 1.5 26t7 29t8 25t14 36t16.5 40l43 109h22l-82 -236h47v-119h-77z" />
<glyph unicode="&#x201d;" horiz-adv-x="651" d="M137 1079l82 236h-47v119h78v-91q0 -14 -1.5 -26t-6.5 -28.5t-8.5 -25.5t-14 -35t-16.5 -40l-43 -109h-23zM367 1079l82 236h-48v119h78v-91q0 -14 -1.5 -26t-6.5 -28.5t-8.5 -25.5t-14 -35t-16.5 -40l-43 -109h-22z" />
<glyph unicode="&#x201e;" horiz-adv-x="651" d="M137 -236l82 236h-47v119h78v-90q0 -14 -1.5 -26t-7 -29t-8 -25t-14 -36t-16.5 -40l-43 -109h-23zM367 -236l82 236h-48v119h78v-90q0 -14 -1.5 -26t-7 -29t-8 -25t-14 -36t-16.5 -40l-43 -109h-22z" />
<glyph unicode="&#x2022;" horiz-adv-x="876" d="M311 741q0 73 27.5 100t99.5 27q74 0 100.5 -27t26.5 -100t-27.5 -100t-99.5 -27q-73 0 -100 27.5t-27 99.5z" />
<glyph unicode="&#x2026;" horiz-adv-x="1257" d="M172 0v119h78v-119h-78zM590 0v119h78v-119h-78zM1008 0v119h77v-119h-77z" />
<glyph unicode="&#x202f;" horiz-adv-x="376" />
<glyph unicode="&#x2039;" horiz-adv-x="479" d="M70 702v33l266 410h45l-270 -426l270 -424h-45z" />
<glyph unicode="&#x203a;" horiz-adv-x="479" d="M98 295l271 424l-271 426h45l267 -410v-33l-267 -407h-45z" />
<glyph unicode="&#x205f;" horiz-adv-x="471" />
<glyph unicode="&#x20ac;" horiz-adv-x="1392" d="M94 567v45h176v258h-176v45h176v207q0 158 77 235t235 77h344q158 0 234.5 -77t76.5 -235v-78h-49v82q0 134 -64.5 198.5t-197.5 64.5h-344q-134 0 -198.5 -64.5t-64.5 -198.5v-211h627v-45h-627v-258h627v-45h-627v-260q0 -133 64.5 -197.5t198.5 -64.5h344 q134 0 198 64.5t64 197.5v82h49v-78q0 -158 -76.5 -234.5t-234.5 -76.5h-344q-158 0 -235 76.5t-77 234.5v256h-176z" />
<glyph unicode="&#x2122;" horiz-adv-x="1525" d="M121 1393v41h504v-41h-230v-697h-45v697h-229zM758 696v738h67l256 -560l256 560h68v-738h-45v690l-264 -575h-29l-264 575v-690h-45z" />
<glyph unicode="&#x25fc;" horiz-adv-x="1105" d="M0 0v1106h1106v-1106h-1106z" />
</font>
</defs>
</svg>
