<?xml version="1.0" standalone="no"?>
<!DOCTYPE svg PUBLIC "-//W3C//DTD SVG 1.1//EN" "http://www.w3.org/Graphics/SVG/1.1/DTD/svg11.dtd" >
<svg xmlns="http://www.w3.org/2000/svg" xmlns:xlink="http://www.w3.org/1999/xlink" version="1.1">
<metadata></metadata>
<defs>
<font id="industryultra" horiz-adv-x="1189" >
<font-face units-per-em="2048" ascent="1638" descent="-410" />
<missing-glyph horiz-adv-x="499" />
<glyph unicode="&#xfb01;" horiz-adv-x="1386" d="M49 829v277h156v127q0 133 64.5 197.5t197.5 64.5h299v-274h-156q-23 0 -32 -9t-9 -32v-74h217v-277h-217v-829h-364v829h-156zM911 1214v281h381v-281h-381zM920 0v1106h364v-1106h-364z" />
<glyph unicode="&#xfb02;" horiz-adv-x="1374" d="M49 829v277h156v127q0 133 64.5 197.5t197.5 64.5h299v-274h-156q-23 0 -32 -9t-9 -32v-74h217v-277h-217v-829h-364v829h-156zM913 0v1495h365v-1495h-365z" />
<glyph horiz-adv-x="0" />
<glyph horiz-adv-x="682" />
<glyph unicode=" "  horiz-adv-x="499" />
<glyph unicode="&#x09;" horiz-adv-x="499" />
<glyph unicode="&#xa0;" horiz-adv-x="499" />
<glyph unicode="!" horiz-adv-x="546" d="M61 1434h424l-63 -906h-297zM90 0v342h367v-342h-367z" />
<glyph unicode="&#x22;" horiz-adv-x="980" d="M78 1434h379l-80 -543h-219zM526 1434h379l-80 -543h-219z" />
<glyph unicode="#" horiz-adv-x="1640" d="M57 328v315h269l73 213h-200v315h311l92 263h342l-92 -263h244l92 263h342l-92 -263h147v-315h-256l-76 -213h191v-315h-299l-115 -328h-344l115 328h-242l-115 -328h-344l115 328h-158zM668 643h241l76 213h-244z" />
<glyph unicode="$" horiz-adv-x="1273" d="M82 410v65h385v-67q0 -64 7 -80.5t30 -16.5h28v258l-151 41q-45 12 -71 20.5t-59.5 22t-51.5 27.5t-40 36.5t-33 50.5t-21.5 66t-14.5 86.5t-4 110.5q0 154 31.5 243.5t90.5 125t157 35.5h116v215h295v-215h111q98 0 156.5 -35.5t90 -124.5t31.5 -244v-57h-385v61 q0 61 -7 76.5t-30 15.5h-16v-243l168 -45q44 -12 70.5 -20t59.5 -21.5t52 -28t40.5 -37.5t32.5 -51.5t21.5 -67.5t14.5 -89t4 -113q0 -157 -31.5 -248t-90.5 -126.5t-157 -35.5h-135v-215h-295v215h-121q-98 0 -156.5 35.5t-90 126.5t-31.5 248zM471 1034q0 -57 7 -71.5 t36 -22.5l18 -4v190h-24q-23 0 -30 -15.5t-7 -76.5zM725 311h43q23 0 30 16.5t7 80.5q0 60 -8 76t-35 22l-37 10v-205z" />
<glyph unicode="%" horiz-adv-x="1318" d="M61 1012v278q0 80 32.5 112t111.5 32h201q79 0 111 -32t32 -112v-278q0 -80 -32 -112t-111 -32h-201q-79 0 -111.5 32t-32.5 112zM188 0l631 1434h311l-630 -1434h-312zM236 1044q0 -15 4.5 -19.5t19.5 -4.5h90q15 0 20 4.5t5 19.5v213q0 15 -5 20t-20 5h-90 q-15 0 -19.5 -5t-4.5 -20v-213zM770 143v279q0 80 32 111.5t111 31.5h201q80 0 111.5 -31.5t31.5 -111.5v-279q0 -79 -31.5 -111t-111.5 -32h-201q-79 0 -111 32t-32 111zM944 176q0 -15 5 -19.5t20 -4.5h90q15 0 19.5 4.5t4.5 19.5v213q0 15 -4.5 20t-19.5 5h-90 q-15 0 -20 -5t-5 -20v-213z" />
<glyph unicode="&#x26;" horiz-adv-x="1355" d="M92 375q0 181 35.5 263.5t140.5 92.5q-99 19 -129 91t-30 253q0 196 66.5 277.5t211.5 81.5h444q135 0 207 -72t72 -207v-160h-385v90q0 22 -7.5 29.5t-29.5 7.5h-158q-23 0 -29.5 -19t-6.5 -99t6.5 -100.5t29.5 -20.5h805v-303h-141v-301q0 -133 -81 -206t-218 -73h-524 q-146 0 -212.5 83.5t-66.5 291.5zM477 446q0 -64 3.5 -92t10.5 -35.5t23 -7.5h279q22 0 29 7.5t7 29.5v232h-315q-16 0 -23 -7.5t-10.5 -35.5t-3.5 -91z" />
<glyph unicode="'" horiz-adv-x="532" d="M78 1434h379l-80 -543h-219z" />
<glyph unicode="(" horiz-adv-x="827" d="M139 61v1225q0 141 69 210t210 69h313v-328h-170q-22 0 -29.5 -7.5t-7.5 -29.5v-1053q0 -22 7.5 -29t29.5 -7h170v-328h-313q-141 0 -210 68.5t-69 209.5z" />
<glyph unicode=")" horiz-adv-x="827" d="M96 111h170q22 0 29.5 7t7.5 29v1053q0 22 -7.5 29.5t-29.5 7.5h-170v328h314q141 0 209.5 -69t68.5 -210v-1225q0 -141 -68.5 -209.5t-209.5 -68.5h-314v328z" />
<glyph unicode="*" horiz-adv-x="868" d="M25 1038l79 258l269 -163l-72 301h268l-71 -301l262 161l86 -254l-311 -24l233 -201l-217 -158l-119 287l-115 -285l-221 156l234 203z" />
<glyph unicode="+" horiz-adv-x="1036" d="M106 608v299h259v236h309v-236h258v-299h-258v-235h-309v235h-259z" />
<glyph unicode="," horiz-adv-x="526" d="M53 -283l178 283h-157v360h379v-247q0 -63 -23 -111t-84 -111l-170 -174h-123z" />
<glyph unicode="-" horiz-adv-x="927" d="M94 508v330h740v-330h-740z" />
<glyph unicode="." horiz-adv-x="526" d="M94 0v340h338v-340h-338z" />
<glyph unicode="/" horiz-adv-x="1103" d="M0 -143l725 1720h379l-725 -1720h-379z" />
<glyph unicode="0" horiz-adv-x="1327" d="M106 279v876q0 141 69 210t210 69h557q141 0 210 -69t69 -210v-876q0 -141 -69 -210t-210 -69h-557q-141 0 -210 69t-69 210zM492 356q0 -22 7 -29.5t29 -7.5h271q22 0 29.5 7.5t7.5 29.5v721q0 22 -7.5 29.5t-29.5 7.5h-271q-22 0 -29 -7.5t-7 -29.5v-721z" />
<glyph unicode="1" horiz-adv-x="884" d="M61 944v322l371 168h289v-1434h-385v1055z" />
<glyph unicode="2" horiz-adv-x="1228" d="M94 0h1073v324h-692v110q0 19 7 28t24 15l362 127q80 28 131 54t90.5 62.5t56.5 84.5t17 115v235q0 135 -71.5 207t-206.5 72h-498q-135 0 -206.5 -72t-71.5 -207v-176h376v106q0 22 7.5 29.5t29.5 7.5h223q22 0 29.5 -7.5t7.5 -29.5v-118q0 -19 -6.5 -28t-23.5 -15 l-363 -127q-81 -29 -131 -54t-90 -61t-57 -84.5t-17 -116.5v-481z" />
<glyph unicode="3" horiz-adv-x="1263" d="M82 375v82h385v-6q0 -92 7 -116t30 -24h256q16 0 23 7.5t10.5 35.5t3.5 92q0 63 -3.5 91t-10.5 35.5t-23 7.5h-305v303h288q23 0 30 20.5t7 100.5q0 56 -3.5 80.5t-10.5 31t-23 6.5h-223q-16 0 -23 -6.5t-10.5 -31t-3.5 -80.5v-27h-385v98q0 196 67 277.5t212 81.5h510 q145 0 211.5 -81.5t66.5 -277.5q0 -181 -30 -253t-129 -91q105 -10 140.5 -92.5t35.5 -263.5q0 -208 -66.5 -291.5t-212.5 -83.5h-543q-146 0 -212 83.5t-66 291.5z" />
<glyph unicode="4" horiz-adv-x="1331" d="M20 563l656 871h440v-840h180v-322h-180v-272h-377v272h-645zM444 594h299v412z" />
<glyph unicode="5" horiz-adv-x="1286" d="M106 279v178h386v-101q0 -22 7 -29.5t29 -7.5h238q22 0 29.5 7.5t7.5 29.5v240q0 21 -13.5 29t-44.5 8q-66 0 -112 -13.5t-119 -50.5l-385 109v756h1012v-320h-627v-305q124 147 311 147q199 0 281 -66.5t82 -211.5v-399q0 -141 -69 -210t-210 -69h-524q-141 0 -210 69 t-69 210z" />
<glyph unicode="6" horiz-adv-x="1290" d="M106 279v876q0 141 69 210t210 69h510q141 0 210 -69t69 -210v-149h-386v71q0 22 -7 29.5t-29 7.5h-224q-22 0 -29 -7.5t-7 -29.5v-313q17 20 21 25t25 25.5t34.5 29.5t41.5 24.5t54.5 23t65 13.5t81.5 6q206 0 289.5 -66t83.5 -212v-354q0 -141 -69 -210t-210 -69h-524 q-141 0 -210 69t-69 210zM492 356q0 -22 7 -29.5t29 -7.5h238q22 0 29.5 7.5t7.5 29.5v215q0 22 -13 29.5t-51 7.5q-80 0 -127 -13t-120 -50v-189z" />
<glyph unicode="7" horiz-adv-x="1226" d="M74 1106v328h1100v-277l-599 -1157h-415l575 1106h-661z" />
<glyph unicode="8" horiz-adv-x="1288" d="M82 375q0 181 35.5 263.5t140.5 92.5q-99 19 -129.5 91.5t-30.5 252.5q0 196 67 277.5t212 81.5h534q145 0 212 -81.5t67 -277.5q0 -180 -30.5 -252.5t-129.5 -91.5q105 -10 140.5 -92.5t35.5 -263.5q0 -208 -66 -291.5t-212 -83.5h-568q-146 0 -212 83.5t-66 291.5z M467 446q0 -64 3.5 -92t10.5 -35.5t23 -7.5h280q16 0 23 7.5t10.5 35.5t3.5 92q0 63 -3.5 91t-10.5 35.5t-23 7.5h-280q-16 0 -23 -7.5t-10.5 -35.5t-3.5 -91zM483 1004q0 -80 7 -100.5t30 -20.5h248q23 0 30 20.5t7 100.5q0 56 -3.5 80.5t-10.5 31t-23 6.5h-248 q-16 0 -23 -6.5t-10.5 -31t-3.5 -80.5z" />
<glyph unicode="9" horiz-adv-x="1290" d="M102 793v362q0 141 69 210t210 69h524q141 0 210 -69t69 -210v-876q0 -141 -69 -210t-210 -69h-510q-141 0 -209.5 69t-68.5 210v149h385v-72q0 -22 7.5 -29.5t29.5 -7.5h223q22 0 29.5 7.5t7.5 29.5v306q-22 -26 -31.5 -36.5t-41 -36.5t-61 -39t-80.5 -24.5t-110 -11.5 q-206 0 -289.5 66.5t-83.5 212.5zM487 854q0 -22 13 -29.5t51 -7.5q79 0 126.5 13t121.5 51v196q0 22 -7.5 29.5t-29.5 7.5h-238q-22 0 -29.5 -7.5t-7.5 -29.5v-223z" />
<glyph unicode=":" horiz-adv-x="567" d="M94 0v360h379v-360h-379zM94 745v361h379v-361h-379z" />
<glyph unicode=";" horiz-adv-x="546" d="M53 -283l178 283h-157v360h379v-247q0 -63 -23 -111t-84 -111l-170 -174h-123zM74 745v361h379v-361h-379z" />
<glyph unicode="&#x3c;" horiz-adv-x="1036" d="M96 616l817 -460v356l-446 231l446 234v356l-817 -463v-254z" />
<glyph unicode="=" horiz-adv-x="1036" d="M106 387v315h826v-315h-826zM106 829v316h826v-316h-826z" />
<glyph unicode="&#x3e;" horiz-adv-x="1036" d="M123 156l817 460v254l-817 463v-356l446 -234l-446 -231v-356z" />
<glyph unicode="?" horiz-adv-x="1177" d="M16 946v209q0 141 69 210t210 69h555q141 0 209.5 -69t68.5 -210v-221q0 -49 -16 -88.5t-56.5 -79.5t-86.5 -73t-129 -85l-111 -69q-24 -15 -24 -43v-39h-386v90q0 41 17 80.5t40 69t67.5 66t77.5 59t93 61.5l105 67q24 18 24 45v74q0 22 -7 29.5t-29 7.5h-269 q-22 0 -29.5 -7.5t-7.5 -29.5v-123h-385zM319 0v328h386v-328h-386z" />
<glyph unicode="@" horiz-adv-x="2035" d="M135 -49v1204q0 141 69 210t210 69h1210q141 0 210 -69t69 -210v-778q0 -141 -69 -210t-210 -69h-440l-56 148q-52 -87 -123 -121.5t-174 -34.5q-164 0 -237.5 68t-73.5 211v372q0 143 73.5 211t237.5 68q103 0 174 -34.5t123 -121.5l56 148h299v-709h104q28 0 39.5 11.5 t11.5 39.5v787q0 28 -11.5 39.5t-39.5 11.5h-1136q-28 0 -40 -11.5t-12 -39.5v-1176q0 -28 12 -39.5t40 -11.5h1038v-242h-1075q-141 0 -210 69t-69 210zM877 401q0 -22 7 -29t29 -7q98 0 213 61v258q-115 61 -213 61q-22 0 -29 -7t-7 -29v-308z" />
<glyph unicode="A" horiz-adv-x="1384" d="M4 0l432 1434h508l436 -1434h-409l-76 295h-422l-76 -295h-393zM551 602h266l-133 518z" />
<glyph unicode="B" horiz-adv-x="1331" d="M125 0v1434h829q145 0 212 -81.5t67 -277.5q0 -177 -33 -249.5t-133 -92.5q105 -10 143.5 -94.5t38.5 -263.5q0 -208 -66 -291.5t-212 -83.5h-846zM510 299h317q16 0 23 8t10.5 39.5t3.5 102.5t-3.5 102t-10.5 39t-23 8h-317v-299zM510 868h301q16 0 23 7t10.5 35t3.5 91 t-3.5 91t-10.5 35.5t-23 7.5h-301v-267z" />
<glyph unicode="C" horiz-adv-x="1280" d="M106 279v876q0 279 283 279h547q140 0 207 -68.5t67 -210.5v-268h-385v190q0 22 -7.5 29.5t-29.5 7.5h-260q-22 0 -29 -7.5t-7 -29.5v-721q0 -22 7 -29.5t29 -7.5h260q22 0 29.5 7.5t7.5 29.5v191h385v-268q0 -141 -68.5 -210t-209.5 -69h-547q-141 0 -210 69t-69 210z " />
<glyph unicode="D" horiz-adv-x="1361" d="M125 0v1434h852q141 0 209.5 -69t68.5 -210v-876q0 -141 -68.5 -210t-209.5 -69h-852zM510 319h324q22 0 29 7.5t7 29.5v721q0 22 -7 29.5t-29 7.5h-324v-795z" />
<glyph unicode="E" horiz-adv-x="1212" d="M125 0v1434h1008v-320h-623v-223h494v-316h-494v-256h623v-319h-1008z" />
<glyph unicode="F" horiz-adv-x="1177" d="M125 0v1434h1008v-320h-623v-250h494v-315h-494v-549h-385z" />
<glyph unicode="G" horiz-adv-x="1325" d="M106 279v876q0 141 69 210t210 69h565q141 0 210 -69t69 -210v-194h-381v120q0 22 -7.5 29.5t-29.5 7.5h-283q-22 0 -29 -7.5t-7 -29.5v-729q0 -22 7 -29.5t29 -7.5h283q22 0 29.5 7.5t7.5 29.5v180h-211v304h592v-557q0 -141 -69 -210t-210 -69h-565q-141 0 -210 69 t-69 210z" />
<glyph unicode="H" horiz-adv-x="1431" d="M125 0v1434h385v-537h412v537h385v-1434h-385v569h-412v-569h-385z" />
<glyph unicode="I" horiz-adv-x="634" d="M125 0v1434h385v-1434h-385z" />
<glyph unicode="J" horiz-adv-x="1169" d="M20 279v317h386v-231q0 -22 7 -29.5t29 -7.5h187q22 0 29.5 7.5t7.5 29.5v1069h385v-1155q0 -141 -69 -210t-210 -69h-473q-141 0 -210 69t-69 210z" />
<glyph unicode="K" horiz-adv-x="1366" d="M125 0v1434h377v-654l416 654h419l-393 -547l414 -887h-406l-243 561l-207 -287v-274h-377z" />
<glyph unicode="L" horiz-adv-x="1124" d="M125 0v1434h385v-1106h571v-328h-956z" />
<glyph unicode="M" horiz-adv-x="1757" d="M125 0v1434h434l322 -754l321 754h430v-1434h-372v825l-269 -651h-233l-269 651v-825h-364z" />
<glyph unicode="N" horiz-adv-x="1474" d="M125 0v1434h383l469 -762v762h373v-1434h-342l-510 821v-821h-373z" />
<glyph unicode="O" horiz-adv-x="1345" d="M106 279v876q0 141 69 210t210 69h576q141 0 209.5 -69t68.5 -210v-876q0 -141 -68.5 -210t-209.5 -69h-576q-141 0 -210 69t-69 210zM492 356q0 -22 7 -29.5t29 -7.5h289q22 0 29.5 7.5t7.5 29.5v721q0 22 -7.5 29.5t-29.5 7.5h-289q-22 0 -29 -7.5t-7 -29.5v-721z" />
<glyph unicode="P" horiz-adv-x="1296" d="M125 0v1434h838q141 0 209.5 -69t68.5 -210v-432q0 -141 -68.5 -210t-209.5 -69h-453v-444h-385zM510 760h309q22 0 29.5 7.5t7.5 29.5v284q0 22 -7.5 29.5t-29.5 7.5h-309v-358z" />
<glyph unicode="Q" horiz-adv-x="1345" d="M106 279v876q0 141 69 210t210 69h576q141 0 209.5 -69t68.5 -210v-876q0 -141 -68.5 -210t-209.5 -69h-103v-266h-369v266h-104q-141 0 -210 69t-69 210zM492 356q0 -22 7 -29.5t29 -7.5h289q22 0 29.5 7.5t7.5 29.5v721q0 22 -7.5 29.5t-29.5 7.5h-289q-22 0 -29 -7.5 t-7 -29.5v-721z" />
<glyph unicode="R" horiz-adv-x="1341" d="M125 0v1434h840q141 0 209.5 -69t68.5 -210v-373q0 -118 -48 -185t-146 -87l251 -510h-389l-243 479h-158v-479h-385zM510 782h311q22 0 29.5 7.5t7.5 29.5v266q0 22 -7.5 29.5t-29.5 7.5h-311v-340z" />
<glyph unicode="S" horiz-adv-x="1273" d="M82 279v196h385v-131q0 -22 7.5 -29.5t29.5 -7.5h264q22 0 29.5 7.5t7.5 29.5v125q0 17 -8.5 24t-34.5 13l-381 104q-59 16 -92.5 27t-72.5 28t-59 36.5t-38.5 48t-25.5 66.5t-7 89v250q0 141 69 210t210 69h522q141 0 209.5 -69t68.5 -210v-182h-385v117q0 22 -7.5 29 t-29.5 7h-235q-22 0 -29.5 -7t-7.5 -29v-111q0 -17 7.5 -24.5t35.5 -14.5l381 -102q58 -15 92.5 -26t72.5 -28t58.5 -36.5t39 -48.5t25.5 -67t7 -89v-264q0 -141 -69 -210t-210 -69h-551q-141 0 -209.5 69t-68.5 210z" />
<glyph unicode="T" horiz-adv-x="1175" d="M37 1106v328h1102v-328h-359v-1106h-385v1106h-358z" />
<glyph unicode="U" horiz-adv-x="1347" d="M119 279v1155h385v-1065q0 -37 37 -37h266q37 0 37 37v1065h385v-1155q0 -135 -72 -207t-207 -72h-553q-135 0 -206.5 72t-71.5 207z" />
<glyph unicode="V" horiz-adv-x="1314" d="M6 1434h414l244 -1037l243 1037h402l-432 -1434h-439z" />
<glyph unicode="W" horiz-adv-x="1902" d="M6 1434h387l156 -971l229 971h363l229 -971l156 971h370l-331 -1434h-398l-209 889l-208 -889h-412z" />
<glyph unicode="X" horiz-adv-x="1335" d="M4 0l457 733l-445 701h426l236 -410l233 410h410l-438 -713l448 -721h-426l-246 412l-245 -412h-410z" />
<glyph unicode="Y" horiz-adv-x="1306" d="M4 1434h418l233 -609l234 609h414l-457 -990v-444h-385v444z" />
<glyph unicode="Z" horiz-adv-x="1222" d="M84 0v244l578 862h-541v328h1018v-244l-576 -862h572v-328h-1051z" />
<glyph unicode="[" horiz-adv-x="794" d="M139 -217v1782h559v-328h-174v-1126h174v-328h-559z" />
<glyph unicode="\" horiz-adv-x="1103" d="M0 1577h379l725 -1720h-379z" />
<glyph unicode="]" horiz-adv-x="794" d="M96 111h174v1126h-174v328h559v-1782h-559v328z" />
<glyph unicode="^" horiz-adv-x="1593" d="M119 422l483 1012h389l486 -1012h-398l-282 670l-283 -670h-395z" />
<glyph unicode="_" d="M10 -70h1170v-325h-1170v325z" />
<glyph unicode="`" horiz-adv-x="716" d="M33 1864l338 -295h295l-185 295h-448z" />
<glyph unicode="a" horiz-adv-x="1128" d="M53 332q0 63 7.5 109t25.5 79t39.5 54t59 36t73.5 23t92 16q78 11 320 29v117q0 23 -9 32t-32 9h-137q-23 0 -32 -9t-9 -32v-62h-361v111q0 134 64 198t198 64h416q134 0 198 -64t64 -198v-844h-340v141q-46 -59 -129 -104t-205 -45q-161 0 -232 76.5t-71 263.5zM418 356 q0 -56 12.5 -79t44.5 -23q77 0 195 72v172l-197 -41q-31 -6 -43 -27.5t-12 -73.5z" />
<glyph unicode="b" d="M106 0v1495h365v-518q54 62 128.5 101.5t197.5 39.5q170 0 239.5 -62.5t69.5 -199.5v-606q0 -137 -69.5 -199.5t-239.5 -62.5q-123 0 -197.5 39.5t-128.5 101.5v-129h-365zM471 336q105 -57 203 -57q40 0 53.5 8.5t13.5 31.5v467q0 24 -14 32.5t-53 8.5q-98 0 -203 -57 v-434z" />
<glyph unicode="c" horiz-adv-x="1099" d="M84 262v582q0 134 64 198t198 64h426q134 0 198 -64t64 -198v-164h-364v98q0 23 -9 32t-32 9h-140q-23 0 -31.5 -9t-8.5 -32v-450q0 -23 8.5 -32t31.5 -9h140q23 0 32 9t9 32v98h364v-164q0 -134 -64 -198t-198 -64h-426q-134 0 -198 64t-64 198z" />
<glyph unicode="d" d="M84 250v606q0 137 69.5 199.5t239.5 62.5q123 0 197.5 -39.5t128.5 -101.5v518h364v-1495h-364v129q-54 -62 -128.5 -101.5t-197.5 -39.5q-170 0 -239.5 62.5t-69.5 199.5zM449 319q0 -23 13.5 -31.5t53.5 -8.5q98 0 203 57v434q-105 57 -203 57q-39 0 -53 -8.5 t-14 -32.5v-467z" />
<glyph unicode="e" horiz-adv-x="1122" d="M84 262v582q0 134 64 198t198 64h436q134 0 198 -64t64 -198v-379h-600v-154q0 -23 9 -32t32 -9h158q23 0 32 9t9 32v56h360v-105q0 -134 -64 -198t-198 -64h-436q-134 0 -198 64t-64 198zM444 666h240v129q0 23 -9 32t-32 9h-158q-23 0 -32 -9t-9 -32v-129z" />
<glyph unicode="f" horiz-adv-x="817" d="M49 829v277h156v127q0 133 64.5 197.5t197.5 64.5h299v-274h-156q-23 0 -32 -9t-9 -32v-74h217v-277h-217v-829h-364v829h-156z" />
<glyph unicode="g" horiz-adv-x="1193" d="M84 311l4 545q2 138 70.5 200t238.5 62q123 0 197.5 -39.5t128.5 -101.5v129h364v-1172q0 -134 -64.5 -198t-197.5 -64h-589v279h446q23 0 32 9t9 32v198q-54 -62 -128.5 -101.5t-197.5 -39.5q-170 0 -240 62t-73 200zM453 381q0 -24 14 -32.5t53 -8.5q98 0 203 57v373 q-105 57 -203 57q-39 0 -53 -8.5t-14 -32.5v-405z" />
<glyph unicode="h" d="M106 0v1495h365v-518q54 62 126.5 101.5t190.5 39.5q162 0 233 -63t71 -199v-856h-365v770q0 24 -11 32.5t-44 8.5q-96 0 -201 -57v-754h-365z" />
<glyph unicode="i" horiz-adv-x="569" d="M94 1214v281h381v-281h-381zM102 0v1106h365v-1106h-365z" />
<glyph unicode="j" horiz-adv-x="567" d="M-92 -109l160 64q34 12 34 45v1106h365v-1153q0 -124 -64.5 -183.5t-199.5 -80.5l-295 -45v247zM90 1214v281h383v-281h-383z" />
<glyph unicode="k" horiz-adv-x="1163" d="M106 0v1495h357v-864l276 475h396l-297 -410l317 -696h-377l-164 389l-151 -207v-182h-357z" />
<glyph unicode="l" horiz-adv-x="557" d="M96 0v1495h365v-1495h-365z" />
<glyph unicode="m" horiz-adv-x="1785" d="M106 0v1106h365v-129q27 31 48 50t57.5 43t86.5 36t113 12q127 0 197.5 -38.5t93.5 -118.5q108 157 317 157q162 0 233 -63t71 -199v-856h-365v770q0 23 -9.5 32t-35.5 9q-94 0 -199 -57v-754h-364v770q0 23 -9.5 32t-35.5 9q-94 0 -199 -57v-754h-365z" />
<glyph unicode="n" d="M106 0v1106h365v-129q54 62 126.5 101.5t190.5 39.5q162 0 233 -63t71 -199v-856h-365v770q0 24 -11 32.5t-44 8.5q-96 0 -201 -57v-754h-365z" />
<glyph unicode="o" horiz-adv-x="1142" d="M84 262v582q0 134 64 198t198 64h451q133 0 197.5 -64t64.5 -198v-582q0 -134 -64.5 -198t-197.5 -64h-451q-134 0 -198 64t-64 198zM440 328q0 -23 9 -32t32 -9h181q23 0 31.5 9t8.5 32v450q0 23 -8.5 32t-31.5 9h-181q-23 0 -32 -9t-9 -32v-450z" />
<glyph unicode="p" d="M106 -328v1434h365v-129q54 62 128.5 101.5t197.5 39.5q170 0 239.5 -62.5t69.5 -199.5v-606q0 -137 -69.5 -199.5t-239.5 -62.5q-123 0 -197.5 39.5t-128.5 101.5v-457h-365zM471 336q105 -57 203 -57q40 0 53.5 8.5t13.5 31.5v467q0 24 -14 32.5t-53 8.5 q-98 0 -203 -57v-434z" />
<glyph unicode="q" d="M84 250v606q0 137 69.5 199.5t239.5 62.5q123 0 197.5 -39.5t128.5 -101.5v129h364v-1434h-364v457q-54 -62 -128.5 -101.5t-197.5 -39.5q-170 0 -239.5 62.5t-69.5 199.5zM449 319q0 -23 13.5 -31.5t53.5 -8.5q98 0 203 57v434q-105 57 -203 57q-39 0 -53 -8.5 t-14 -32.5v-467z" />
<glyph unicode="r" horiz-adv-x="886" d="M106 0v1106h365v-141q105 141 260 141h115v-318h-135q-153 0 -240 -57v-731h-365z" />
<glyph unicode="s" horiz-adv-x="1083" d="M55 342v31h361v-35q0 -44 8.5 -58t32.5 -14h168q24 0 32.5 14t8.5 58q0 36 -8.5 47t-30.5 14l-314 56q-70 13 -111.5 29.5t-73.5 51t-45 90t-13 142.5q0 186 62.5 262t199.5 76h409q137 0 200 -76t63 -262v-16h-361v30q0 40 -8.5 53t-32.5 13h-131q-24 0 -32.5 -13 t-8.5 -53q0 -38 9 -51t32 -16l313 -56q70 -13 111 -29.5t74 -50.5t46 -91t13 -146q0 -189 -62.5 -265.5t-199.5 -76.5h-449q-137 0 -199.5 76.5t-62.5 265.5z" />
<glyph unicode="t" horiz-adv-x="854" d="M29 823v283h176v266h356v-266h227v-283h-223v-491q0 -23 9 -32t32 -9h182v-291h-325q-133 0 -197.5 64t-64.5 198v561h-172z" />
<glyph unicode="u" d="M98 250v856h365v-758q0 -24 11 -32.5t44 -8.5q94 0 201 58v741h364v-1106h-364v129q-54 -62 -127 -101.5t-191 -39.5q-162 0 -232.5 63t-70.5 199z" />
<glyph unicode="v" horiz-adv-x="1103" d="M8 1106h383l170 -766l172 766h363l-348 -1106h-390z" />
<glyph unicode="w" horiz-adv-x="1648" d="M8 1106h367l123 -721l172 721h329l172 -721l123 721h346l-288 -1106h-365l-160 670l-159 -670h-371z" />
<glyph unicode="x" horiz-adv-x="1114" d="M4 0l367 571l-363 535h385l170 -293l170 293h367l-357 -541l367 -565h-385l-178 283l-178 -283h-365z" />
<glyph unicode="y" horiz-adv-x="1122" d="M8 1106h383l180 -739l181 739h362l-479 -1434h-352l108 328z" />
<glyph unicode="z" horiz-adv-x="997" d="M57 0v248l424 565h-411v293h850v-242l-431 -571h451v-293h-883z" />
<glyph unicode="{" horiz-adv-x="960" d="M78 518v318h158q22 0 29 7t7 29v414q0 141 69 210t210 69h313v-328h-170q-22 0 -29.5 -7.5t-7.5 -29.5v-344q0 -71 -42.5 -118.5t-96.5 -59.5q53 -10 96 -58.5t43 -119.5v-353q0 -22 7.5 -29t29.5 -7h170v-328h-313q-141 0 -210 68.5t-69 209.5v420q0 22 -7 29.5t-29 7.5 h-158z" />
<glyph unicode="|" horiz-adv-x="751" d="M195 -442v2013h362v-2013h-362z" />
<glyph unicode="}" horiz-adv-x="960" d="M96 111h170q22 0 29.5 7t7.5 29v353q0 71 43 119.5t96 58.5q-54 12 -96.5 59.5t-42.5 118.5v344q0 22 -7.5 29.5t-29.5 7.5h-170v328h314q141 0 209.5 -69t68.5 -210v-414q0 -22 7.5 -29t29.5 -7h158v-318h-158q-22 0 -29.5 -7.5t-7.5 -29.5v-420q0 -141 -68.5 -209.5 t-209.5 -68.5h-314v328z" />
<glyph unicode="~" horiz-adv-x="1036" d="M147 520h172v39q0 25 12 34t36 9q35 0 88.5 -23.5t116.5 -47t120 -23.5q39 0 72 12t63.5 40t48 84t17.5 134v51h-176v-38q0 -43 -43 -43q-35 0 -88 23.5t-113.5 47t-112.5 23.5q-39 0 -73.5 -12t-67.5 -40.5t-52.5 -84.5t-19.5 -134v-51z" />
<glyph unicode="&#xa1;" horiz-adv-x="546" d="M61 -328l60 906h305l59 -906h-424zM84 758v348h379v-348h-379z" />
<glyph unicode="&#xa2;" horiz-adv-x="1239" d="M86 453v540q0 141 69 210t210 69h96v162h323v-162h95q141 0 209.5 -69t68.5 -210v-172h-348v103q0 22 -7.5 29.5t-29.5 7.5h-35v-476h35q22 0 29.5 7.5t7.5 29.5v103h348v-172q0 -141 -68.5 -210t-209.5 -69h-95v-174h-323v174h-96q-141 0 -210 69t-69 210zM434 522 q0 -22 7.5 -29.5t29.5 -7.5h35v476h-35q-22 0 -29.5 -7.5t-7.5 -29.5v-402z" />
<glyph unicode="&#xa3;" horiz-adv-x="1282" d="M41 0v315h111q22 0 29 7.5t7 29.5v185h-147v311h147v307q0 141 69 210t210 69h457q141 0 209.5 -69t68.5 -210v-207h-385v133q0 22 -7.5 29.5t-29.5 7.5h-170q-22 0 -29.5 -7.5t-7.5 -29.5v-233h226v-311h-226v-222h637v-315h-1169z" />
<glyph unicode="&#xa4;" horiz-adv-x="1222" d="M0 322l168 167q-6 30 -6 72v344q0 28 4 68l-166 166l221 225l182 -182l37 2h344l35 -2l182 182l222 -225l-164 -164q4 -46 4 -70v-344q0 -39 -6 -74l166 -165l-222 -226l-186 187h-31h-344h-32l-187 -187zM489 608q0 -37 37 -37h172q37 0 37 37v250q0 22 -7.5 29.5 t-29.5 7.5h-172q-22 0 -29.5 -7.5t-7.5 -29.5v-250z" />
<glyph unicode="&#xa5;" horiz-adv-x="1306" d="M4 1434h418l233 -609l234 609h414l-338 -734h153v-157h-227l-35 -78h262v-158h-272v-307h-385v307h-291v158h281l-35 78h-246v157h172z" />
<glyph unicode="&#xa6;" horiz-adv-x="751" d="M195 369h362v-811h-362v811zM195 760v811h362v-811h-362z" />
<glyph unicode="&#xa7;" horiz-adv-x="1097" d="M66 86v115h356v-70q0 -22 7.5 -29.5t29.5 -7.5h176q23 0 30 13t7 59q0 48 -6 60.5t-27 15.5l-322 51q-130 20 -183.5 92t-53.5 231q0 121 36 188t77 83q-28 10 -47.5 26.5t-35.5 62t-16 116.5q0 185 67.5 263.5t211.5 78.5h354q141 0 210 -69t69 -210v-90h-357v61 q0 22 -7.5 29.5t-29.5 7.5h-135q-22 0 -29.5 -10.5t-7.5 -46.5q0 -37 6 -48t27 -14l320 -55q131 -24 185 -96t54 -234q0 -128 -30.5 -192.5t-69.5 -79.5q25 -11 41.5 -28t30.5 -64.5t14 -122.5q0 -200 -67 -282.5t-212 -82.5h-395q-141 0 -209.5 69t-68.5 210zM426 662 q0 -67 7 -84.5t26 -20.5l188 -31q22 -5 35.5 -0.5t19 25.5t5.5 70q0 56 -11 79t-43 29l-188 33q-23 3 -31 -15.5t-8 -84.5z" />
<glyph unicode="&#xa8;" horiz-adv-x="1306" d="M291 1569v286h305v-286h-305zM711 1569v286h305v-286h-305z" />
<glyph unicode="&#xa9;" horiz-adv-x="1730" d="M135 279v876q0 141 69 210t210 69h905q141 0 209.5 -69t68.5 -210v-876q0 -141 -68.5 -210t-209.5 -69h-905q-141 0 -210 69t-69 210zM371 293q0 -49 18.5 -67.5t67.5 -18.5h817q50 0 68 18.5t18 67.5v848q0 49 -18 67.5t-68 18.5h-817q-49 0 -67.5 -18.5t-18.5 -67.5 v-848zM506 496v442q0 95 44.5 139.5t139.5 44.5h354q95 0 140 -44.5t45 -139.5v-145h-258v63q0 22 -7.5 29.5t-29.5 7.5h-133q-22 0 -29.5 -7.5t-7.5 -29.5v-278q0 -22 7.5 -29.5t29.5 -7.5h133q22 0 29.5 7.5t7.5 29.5v63h258v-145q0 -95 -45 -140t-140 -45h-354 q-95 0 -139.5 45t-44.5 140z" />
<glyph unicode="&#xaa;" horiz-adv-x="798" d="M76 924q0 107 52 149.5t167 63.5q107 19 201 24v80q0 25 -25 25h-131q-25 0 -25 -25v-41h-217v49q0 95 45 140t140 45h252q94 0 139 -45t45 -140v-534h-223v100q-20 -33 -38 -53t-55.5 -36.5t-89.5 -16.5q-121 0 -179 50t-58 165zM92 416v196h627v-196h-627zM299 944 q0 -34 10.5 -44.5t48.5 -10.5q72 0 140 45v106l-158 -36q-23 -5 -32 -17t-9 -43z" />
<glyph unicode="&#xab;" horiz-adv-x="1169" d="M8 662v114l262 369h369l-305 -426l305 -424h-369zM516 662v114l262 369h369l-305 -426l305 -424h-369z" />
<glyph unicode="&#xad;" horiz-adv-x="927" d="M94 508v330h740v-330h-740z" />
<glyph unicode="&#xae;" horiz-adv-x="827" d="M86 793v518q0 65 29 94t94 29h407q64 0 93.5 -29t29.5 -94v-518q0 -65 -29.5 -94t-93.5 -29h-407q-65 0 -94 29t-29 94zM182 799q0 -25 9 -34t34 -9h379q25 0 34 9t9 34v506q0 25 -9 34t-34 9h-379q-25 0 -34 -9t-9 -34v-506zM252 827v447h248q44 0 63 -19t19 -63v-117 q0 -39 -14.5 -58t-47.5 -22l74 -168h-107l-71 166h-60v-166h-104zM358 1081h101q16 0 16 17v71q0 17 -16 17h-101v-105z" />
<glyph unicode="&#xaf;" horiz-adv-x="1259" d="M319 1569v268h580v-268h-580z" />
<glyph unicode="&#xb0;" horiz-adv-x="649" d="M98 1122v189q0 65 29 94t94 29h207q64 0 93.5 -29t29.5 -94v-189q0 -64 -29.5 -93.5t-93.5 -29.5h-207q-65 0 -94 29.5t-29 93.5zM248 1155q0 -15 4.5 -20t19.5 -5h105q15 0 19.5 5t4.5 20v123q0 15 -4.5 20t-19.5 5h-105q-15 0 -19.5 -5t-4.5 -20v-123z" />
<glyph unicode="&#xb1;" horiz-adv-x="1036" d="M106 125v297h826v-297h-826zM106 772v301h259v236h309v-236h258v-301h-258v-233h-309v233h-259z" />
<glyph unicode="&#xb2;" horiz-adv-x="755" d="M43 823h676v215h-432v37q0 17 18 23l232 63q98 27 139 63.5t41 104.5v166q0 79 -42.5 121.5t-121.5 42.5h-336q-79 0 -121.5 -42.5t-42.5 -121.5v-109h238v44q0 12 4 16t16 4h140q12 0 16 -4t4 -16v-52q0 -16 -18 -22l-230 -64q-99 -27 -139.5 -63.5t-40.5 -104.5v-301z " />
<glyph unicode="&#xb3;" horiz-adv-x="753" d="M33 1057v30h243v-4q0 -38 4 -47.5t17 -9.5h141q13 0 17 10t4 51t-4 51.5t-17 10.5h-147v197h137q13 0 17 9.5t4 45.5t-4 45.5t-17 9.5h-121q-13 0 -16.5 -9t-3.5 -46v-6h-244v41q0 120 40.5 171.5t123.5 51.5h323q83 0 123.5 -51.5t40.5 -171.5q0 -91 -21 -137t-69 -50 q53 -12 77 -56t24 -136q0 -127 -40.5 -180.5t-123.5 -53.5h-344q-83 0 -123.5 53.5t-40.5 180.5z" />
<glyph unicode="&#xb4;" horiz-adv-x="720" d="M53 1569l185 295h452l-340 -295h-297z" />
<glyph unicode="&#xb6;" horiz-adv-x="1785" d="M92 780v375q0 141 69 210t210 69h1290v-1434h-385v1108h-170v-1108h-385v502h-350q-141 0 -210 68.5t-69 209.5z" />
<glyph unicode="&#xb7;" horiz-adv-x="520" d="M90 494v337h338v-337h-338z" />
<glyph unicode="&#xb8;" horiz-adv-x="1153" d="M223 -152h191q23 0 32 9t9 32v111h254v-135q0 -109 -46.5 -151t-146.5 -42h-190z" />
<glyph unicode="&#xb9;" horiz-adv-x="540" d="M37 1368v191l235 100h183v-836h-246v604z" />
<glyph unicode="&#xba;" horiz-adv-x="796" d="M80 899v350q0 95 44.5 140t139.5 45h268q97 0 141 -44t44 -141v-350q0 -95 -44.5 -139.5t-140.5 -44.5h-268q-95 0 -139.5 44.5t-44.5 139.5zM96 416v196h604v-196h-604zM303 936q0 -19 7 -26t26 -7h125q19 0 26 7t7 26v276q0 19 -7 26t-26 7h-125q-19 0 -26 -7t-7 -26 v-276z" />
<glyph unicode="&#xbb;" horiz-adv-x="1171" d="M23 295l305 424l-305 426h368l262 -369v-114l-262 -367h-368zM532 295l306 424l-306 426h369l262 -369v-114l-262 -367h-369z" />
<glyph unicode="&#xbc;" horiz-adv-x="1757" d="M37 1143v190l235 101h183v-836h-246v604zM219 0l864 1434h258l-864 -1434h-258zM930 303l487 533h187v-502h112v-199h-112v-135h-242v135h-381zM1208 334h154v176z" />
<glyph unicode="&#xbd;" horiz-adv-x="1775" d="M37 1143v190l235 101h183v-836h-246v604zM219 0l864 1434h258l-864 -1434h-258zM1063 0h676v215h-432v37q0 16 18 22l231 64q98 27 139.5 63.5t41.5 104.5v166q0 80 -42.5 122t-121.5 42h-336q-79 0 -121.5 -42t-42.5 -122v-109h238v43q0 12 4 16.5t16 4.5h139 q12 0 16.5 -4.5t4.5 -16.5v-51q0 -17 -18 -23l-230 -63q-99 -27 -139.5 -63.5t-40.5 -104.5v-301z" />
<glyph unicode="&#xbe;" horiz-adv-x="1970" d="M33 831v31h243v-4q0 -38 4 -47.5t17 -9.5h141q13 0 17 10t4 51t-4 51.5t-17 10.5h-147v196h137q13 0 17 9.5t4 46.5q0 36 -4 45.5t-17 9.5h-121q-13 0 -16.5 -9t-3.5 -46v-7h-244v41q0 121 40.5 172.5t123.5 51.5h323q83 0 123.5 -51.5t40.5 -172.5q0 -90 -21 -136 t-69 -50q53 -12 77 -56.5t24 -136.5q0 -127 -40.5 -180t-123.5 -53h-344q-83 0 -123.5 53t-40.5 180zM432 0l864 1434h258l-864 -1434h-258zM1143 303l487 533h187v-502h112v-199h-112v-135h-242v135h-381zM1421 334h154v176z" />
<glyph unicode="&#xbf;" horiz-adv-x="1177" d="M49 -49v221q0 49 16 88.5t57 79.5t87 72.5t129 85.5l111 69q24 15 24 43v39h385v-90q0 -41 -17 -80.5t-40 -69t-67.5 -66t-77.5 -59t-93 -61.5l-104 -67q-25 -19 -25 -45v-74q0 -22 7.5 -29.5t29.5 -7.5h268q22 0 29.5 7.5t7.5 29.5v123h385v-209q0 -141 -68.5 -210 t-209.5 -69h-555q-141 0 -210 69t-69 210zM473 778v328h385v-328h-385z" />
<glyph unicode="&#xc0;" horiz-adv-x="1384" d="M4 0l432 1434h508l436 -1434h-409l-76 295h-422l-76 -295h-393zM248 1864h448l185 -295h-295zM551 602h266l-133 518z" />
<glyph unicode="&#xc1;" horiz-adv-x="1384" d="M4 0l432 1434h508l436 -1434h-409l-76 295h-422l-76 -295h-393zM502 1569l184 295h453l-340 -295h-297zM551 602h266l-133 518z" />
<glyph unicode="&#xc2;" horiz-adv-x="1384" d="M4 0l432 1434h508l436 -1434h-409l-76 295h-422l-76 -295h-393zM248 1569l311 293h266l312 -293h-334l-111 117l-110 -117h-334zM551 602h266l-133 518z" />
<glyph unicode="&#xc3;" horiz-adv-x="1384" d="M4 0l432 1434h508l436 -1434h-409l-76 295h-422l-76 -295h-393zM317 1561v51q0 78 19.5 134t52.5 84t67.5 40t73.5 12q52 0 106 -23.5t101 -47t82 -23.5q43 0 43 43v39h176v-51q0 -78 -17.5 -134t-48 -84.5t-63 -40.5t-71.5 -12q-57 0 -114 23.5t-104.5 47t-82.5 23.5 q-24 0 -36 -9t-12 -34v-38h-172zM551 602h266l-133 518z" />
<glyph unicode="&#xc4;" horiz-adv-x="1384" d="M4 0l432 1434h508l436 -1434h-409l-76 295h-422l-76 -295h-393zM330 1569v286h305v-286h-305zM551 602h266l-133 518zM750 1569v286h305v-286h-305z" />
<glyph unicode="&#xc5;" horiz-adv-x="1384" d="M4 0l432 1434h508l436 -1434h-409l-76 295h-422l-76 -295h-393zM467 1671v170q0 56 23.5 79.5t78.5 23.5h244q55 0 78.5 -23.5t23.5 -79.5v-170q0 -55 -23.5 -78.5t-78.5 -23.5h-244q-55 0 -78.5 23.5t-23.5 78.5zM551 602h266l-133 518zM631 1722q0 -15 4.5 -19.5 t19.5 -4.5h72q15 0 20 4.5t5 19.5v68q0 15 -5 20t-20 5h-72q-15 0 -19.5 -5t-4.5 -20v-68z" />
<glyph unicode="&#xc6;" horiz-adv-x="2121" d="M4 0l741 1434h1297v-328h-619v-211h490v-324h-490v-243h619v-328h-1004v340h-448l-170 -340h-416zM748 657h290v449h-67z" />
<glyph unicode="&#xc7;" horiz-adv-x="1280" d="M106 279v876q0 279 283 279h547q140 0 207 -68.5t67 -210.5v-268h-385v190q0 22 -7.5 29.5t-29.5 7.5h-260q-22 0 -29 -7.5t-7 -29.5v-721q0 -22 7 -29.5t29 -7.5h260q22 0 29.5 7.5t7.5 29.5v191h385v-268q0 -141 -68.5 -210t-209.5 -69h-137v-135q0 -109 -46.5 -151 t-146.5 -42h-190l-103 176h191q23 0 32 9t9 32v111h-156q-141 0 -210 69t-69 210z" />
<glyph unicode="&#xc8;" horiz-adv-x="1212" d="M125 0v1434h1008v-320h-623v-223h494v-316h-494v-256h623v-319h-1008zM193 1864l337 -295h295l-184 295h-448z" />
<glyph unicode="&#xc9;" horiz-adv-x="1212" d="M125 0v1434h1008v-320h-623v-223h494v-316h-494v-256h623v-319h-1008zM446 1569l185 295h452l-340 -295h-297z" />
<glyph unicode="&#xca;" horiz-adv-x="1212" d="M125 0v1434h1008v-320h-623v-223h494v-316h-494v-256h623v-319h-1008zM193 1569h333l111 117l111 -117h333l-311 293h-266z" />
<glyph unicode="&#xcb;" horiz-adv-x="1212" d="M125 0v1434h1008v-320h-623v-223h494v-316h-494v-256h623v-319h-1008zM274 1569v286h306v-286h-306zM694 1569v286h305v-286h-305z" />
<glyph unicode="&#xcc;" horiz-adv-x="634" d="M-127 1864l338 -295h295l-184 295h-449zM125 0v1434h385v-1434h-385z" />
<glyph unicode="&#xcd;" horiz-adv-x="634" d="M125 0v1434h385v-1434h-385zM127 1569l184 295h453l-340 -295h-297z" />
<glyph unicode="&#xce;" horiz-adv-x="634" d="M-127 1569h334l110 117l111 -117h334l-311 293h-267zM125 0v1434h385v-1434h-385z" />
<glyph unicode="&#xcf;" horiz-adv-x="634" d="M-45 1569v286h305v-286h-305zM125 0v1434h385v-1434h-385zM375 1569v286h305v-286h-305z" />
<glyph unicode="&#xd0;" horiz-adv-x="1343" d="M-29 569v340h135v525h852q141 0 210 -69t69 -210v-876q0 -141 -69 -210t-210 -69h-852v569h-135zM492 328h323q22 0 29.5 7.5t7.5 29.5v704q0 22 -7.5 29.5t-29.5 7.5h-323v-197h137v-340h-137v-241z" />
<glyph unicode="&#xd1;" horiz-adv-x="1474" d="M125 0v1434h383l469 -762v762h373v-1434h-342l-510 821v-821h-373zM352 1561h172v38q0 25 11.5 34t35.5 9q35 0 82.5 -23.5t104.5 -47t114 -23.5q39 0 72 12t63.5 40.5t48 84.5t17.5 134v51h-176v-39q0 -43 -43 -43q-35 0 -82 23.5t-101 47t-106 23.5q-39 0 -73.5 -12 t-67.5 -40t-52.5 -84t-19.5 -134v-51z" />
<glyph unicode="&#xd2;" horiz-adv-x="1345" d="M106 279v876q0 141 69 210t210 69h576q141 0 209.5 -69t68.5 -210v-876q0 -141 -68.5 -210t-209.5 -69h-576q-141 0 -210 69t-69 210zM229 1864l338 -295h295l-184 295h-449zM492 356q0 -22 7 -29.5t29 -7.5h289q22 0 29.5 7.5t7.5 29.5v721q0 22 -7.5 29.5t-29.5 7.5 h-289q-22 0 -29 -7.5t-7 -29.5v-721z" />
<glyph unicode="&#xd3;" horiz-adv-x="1345" d="M106 279v876q0 141 69 210t210 69h576q141 0 209.5 -69t68.5 -210v-876q0 -141 -68.5 -210t-209.5 -69h-576q-141 0 -210 69t-69 210zM483 1569l185 295h452l-340 -295h-297zM492 356q0 -22 7 -29.5t29 -7.5h289q22 0 29.5 7.5t7.5 29.5v721q0 22 -7.5 29.5t-29.5 7.5 h-289q-22 0 -29 -7.5t-7 -29.5v-721z" />
<glyph unicode="&#xd4;" horiz-adv-x="1345" d="M106 279v876q0 141 69 210t210 69h576q141 0 209.5 -69t68.5 -210v-876q0 -141 -68.5 -210t-209.5 -69h-576q-141 0 -210 69t-69 210zM229 1569h334l111 117l110 -117h334l-311 293h-266zM492 356q0 -22 7 -29.5t29 -7.5h289q22 0 29.5 7.5t7.5 29.5v721q0 22 -7.5 29.5 t-29.5 7.5h-289q-22 0 -29 -7.5t-7 -29.5v-721z" />
<glyph unicode="&#xd5;" horiz-adv-x="1345" d="M106 279v876q0 141 69 210t210 69h576q141 0 209.5 -69t68.5 -210v-876q0 -141 -68.5 -210t-209.5 -69h-576q-141 0 -210 69t-69 210zM299 1561h172v38q0 25 11.5 34t35.5 9q35 0 82.5 -23.5t104.5 -47t114 -23.5q39 0 72 12t63.5 40.5t48 84.5t17.5 134v51h-176v-39 q0 -43 -43 -43q-35 0 -82 23.5t-101 47t-106 23.5q-39 0 -73.5 -12t-67.5 -40t-52.5 -84t-19.5 -134v-51zM492 356q0 -22 7 -29.5t29 -7.5h289q22 0 29.5 7.5t7.5 29.5v721q0 22 -7.5 29.5t-29.5 7.5h-289q-22 0 -29 -7.5t-7 -29.5v-721z" />
<glyph unicode="&#xd6;" horiz-adv-x="1345" d="M106 279v876q0 141 69 210t210 69h576q141 0 209.5 -69t68.5 -210v-876q0 -141 -68.5 -210t-209.5 -69h-576q-141 0 -210 69t-69 210zM311 1569v286h305v-286h-305zM492 356q0 -22 7 -29.5t29 -7.5h289q22 0 29.5 7.5t7.5 29.5v721q0 22 -7.5 29.5t-29.5 7.5h-289 q-22 0 -29 -7.5t-7 -29.5v-721zM731 1569v286h305v-286h-305z" />
<glyph unicode="&#xd7;" horiz-adv-x="1036" d="M102 479l205 203l-205 205l211 213l205 -205l205 203l211 -211l-205 -203l205 -205l-211 -213l-205 205l-205 -203z" />
<glyph unicode="&#xd8;" horiz-adv-x="1345" d="M106 279v876q0 141 69 210t210 69h389l49 135h316l-56 -152q156 -53 156 -262v-876q0 -141 -68.5 -210t-209.5 -69h-394l-49 -135h-315l55 153q-152 52 -152 261zM492 657l163 449h-127q-22 0 -29 -7.5t-7 -29.5v-412zM686 328h131q22 0 29.5 7.5t7.5 29.5v421z" />
<glyph unicode="&#xd9;" horiz-adv-x="1347" d="M119 279v1155h385v-1065q0 -37 37 -37h266q37 0 37 37v1065h385v-1155q0 -135 -72 -207t-207 -72h-553q-135 0 -206.5 72t-71.5 207zM229 1864l338 -295h295l-184 295h-449z" />
<glyph unicode="&#xda;" horiz-adv-x="1347" d="M119 279v1155h385v-1065q0 -37 37 -37h266q37 0 37 37v1065h385v-1155q0 -135 -72 -207t-207 -72h-553q-135 0 -206.5 72t-71.5 207zM483 1569l185 295h452l-340 -295h-297z" />
<glyph unicode="&#xdb;" horiz-adv-x="1347" d="M119 279v1155h385v-1065q0 -37 37 -37h266q37 0 37 37v1065h385v-1155q0 -135 -72 -207t-207 -72h-553q-135 0 -206.5 72t-71.5 207zM229 1569h334l111 117l110 -117h334l-311 293h-266z" />
<glyph unicode="&#xdc;" horiz-adv-x="1347" d="M119 279v1155h385v-1065q0 -37 37 -37h266q37 0 37 37v1065h385v-1155q0 -135 -72 -207t-207 -72h-553q-135 0 -206.5 72t-71.5 207zM311 1569v286h305v-286h-305zM731 1569v286h305v-286h-305z" />
<glyph unicode="&#xdd;" horiz-adv-x="1306" d="M4 1434h418l233 -609l234 609h414l-457 -990v-444h-385v444zM465 1569l184 295h453l-340 -295h-297z" />
<glyph unicode="&#xde;" horiz-adv-x="1296" d="M125 0v1434h385v-201h453q141 0 209.5 -69t68.5 -210v-415q0 -141 -68.5 -210t-209.5 -69h-453v-260h-385zM510 588h309q22 0 29.5 7.5t7.5 29.5v243q0 22 -7.5 29.5t-29.5 7.5h-309v-317z" />
<glyph unicode="&#xdf;" horiz-adv-x="1177" d="M98 0v1233q0 127 67 194.5t195 67.5h474q134 0 198 -88t64 -305q0 -161 -25 -227.5t-102 -112.5q58 -30 87 -67t42.5 -103t13.5 -184q0 -154 -31 -245.5t-86.5 -127t-144.5 -35.5h-281v319h142q22 0 31.5 28t9.5 116q0 61 -5 92.5t-13 40t-23 8.5h-156v318h139q15 0 23 8 t13 36t5 83t-5 83t-13 36t-23 8h-190q-41 0 -41 -41v-1135h-365z" />
<glyph unicode="&#xe0;" horiz-adv-x="1128" d="M53 332q0 63 7.5 109t25.5 79t39.5 54t59 36t73.5 23t92 16q78 11 320 29v117q0 23 -9 32t-32 9h-137q-23 0 -32 -9t-9 -32v-62h-361v111q0 134 64 198t198 64h416q134 0 198 -64t64 -198v-844h-340v141q-46 -59 -129 -104t-205 -45q-161 0 -232 76.5t-71 263.5z M129 1536l338 -295h295l-184 295h-449zM418 356q0 -56 12.5 -79t44.5 -23q77 0 195 72v172l-197 -41q-31 -6 -43 -27.5t-12 -73.5z" />
<glyph unicode="&#xe1;" horiz-adv-x="1128" d="M53 332q0 63 7.5 109t25.5 79t39.5 54t59 36t73.5 23t92 16q78 11 320 29v117q0 23 -9 32t-32 9h-137q-23 0 -32 -9t-9 -32v-62h-361v111q0 134 64 198t198 64h416q134 0 198 -64t64 -198v-844h-340v141q-46 -59 -129 -104t-205 -45q-161 0 -232 76.5t-71 263.5z M383 1241l184 295h453l-340 -295h-297zM418 356q0 -56 12.5 -79t44.5 -23q77 0 195 72v172l-197 -41q-31 -6 -43 -27.5t-12 -73.5z" />
<glyph unicode="&#xe2;" horiz-adv-x="1128" d="M53 332q0 63 7.5 109t25.5 79t39.5 54t59 36t73.5 23t92 16q78 11 320 29v117q0 23 -9 32t-32 9h-137q-23 0 -32 -9t-9 -32v-62h-361v111q0 134 64 198t198 64h416q134 0 198 -64t64 -198v-844h-340v141q-46 -59 -129 -104t-205 -45q-161 0 -232 76.5t-71 263.5z M129 1241h334l110 117l111 -117h334l-311 293h-267zM418 356q0 -56 12.5 -79t44.5 -23q77 0 195 72v172l-197 -41q-31 -6 -43 -27.5t-12 -73.5z" />
<glyph unicode="&#xe3;" horiz-adv-x="1128" d="M53 332q0 63 7.5 109t25.5 79t39.5 54t59 36t73.5 23t92 16q78 11 320 29v117q0 23 -9 32t-32 9h-137q-23 0 -32 -9t-9 -32v-62h-361v111q0 134 64 198t198 64h416q134 0 198 -64t64 -198v-844h-340v141q-46 -59 -129 -104t-205 -45q-161 0 -232 76.5t-71 263.5z M199 1233h172v39q0 25 11.5 34t35.5 9q35 0 82.5 -23.5t104.5 -47t114 -23.5q39 0 72 12t63.5 40t48 84t17.5 134v51h-177v-39q0 -43 -43 -43q-35 0 -81.5 23.5t-100.5 47t-106 23.5q-39 0 -73.5 -12t-67.5 -40t-52.5 -84t-19.5 -134v-51zM418 356q0 -56 12.5 -79t44.5 -23 q77 0 195 72v172l-197 -41q-31 -6 -43 -27.5t-12 -73.5z" />
<glyph unicode="&#xe4;" horiz-adv-x="1128" d="M53 332q0 63 7.5 109t25.5 79t39.5 54t59 36t73.5 23t92 16q78 11 320 29v117q0 23 -9 32t-32 9h-137q-23 0 -32 -9t-9 -32v-62h-361v111q0 134 64 198t198 64h416q134 0 198 -64t64 -198v-844h-340v141q-46 -59 -129 -104t-205 -45q-161 0 -232 76.5t-71 263.5z M211 1241v287h305v-287h-305zM418 356q0 -56 12.5 -79t44.5 -23q77 0 195 72v172l-197 -41q-31 -6 -43 -27.5t-12 -73.5zM631 1241v287h305v-287h-305z" />
<glyph unicode="&#xe5;" horiz-adv-x="1128" d="M53 332q0 63 7.5 109t25.5 79t39.5 54t59 36t73.5 23t92 16q78 11 320 29v117q0 23 -9 32t-32 9h-137q-23 0 -32 -9t-9 -32v-62h-361v111q0 134 64 198t198 64h416q134 0 198 -64t64 -198v-844h-340v141q-46 -59 -129 -104t-205 -45q-161 0 -232 76.5t-71 263.5z M348 1343v170q0 55 24 79t79 24h243q56 0 79.5 -24t23.5 -79v-170q0 -55 -23.5 -78.5t-79.5 -23.5h-243q-56 0 -79.5 23.5t-23.5 78.5zM418 356q0 -56 12.5 -79t44.5 -23q77 0 195 72v172l-197 -41q-31 -6 -43 -27.5t-12 -73.5zM512 1395q0 -15 5 -20t20 -5h71q15 0 20 5 t5 20v67q0 15 -5 20t-20 5h-71q-15 0 -20 -5t-5 -20v-67z" />
<glyph unicode="&#xe6;" horiz-adv-x="1708" d="M53 332q0 63 7.5 109t25.5 79t39.5 54t59 36t73.5 23t92 16q78 11 320 29v117q0 23 -9 32t-32 9h-137q-23 0 -32 -9t-9 -32v-62h-361v111q0 134 64 198t198 64h273q220 0 225 -105q5 105 225 105h293q134 0 198 -64t64 -198v-383h-600v-150q0 -23 9 -32t32 -9h158 q23 0 32 9t9 32v51h360v-100q0 -134 -64 -198t-198 -64h-436q-195 0 -244 139q-45 -58 -128 -102.5t-204 -44.5q-161 0 -232 76.5t-71 263.5zM418 356q0 -56 12.5 -79t44.5 -23q77 0 195 72v172l-197 -41q-31 -6 -43 -27.5t-12 -73.5zM1030 666h240v129q0 23 -9 32t-32 9 h-158q-23 0 -32 -9t-9 -32v-129z" />
<glyph unicode="&#xe7;" horiz-adv-x="1099" d="M84 262v582q0 134 64 198t198 64h426q134 0 198 -64t64 -198v-164h-364v98q0 23 -9 32t-32 9h-140q-23 0 -31.5 -9t-8.5 -32v-450q0 -23 8.5 -32t31.5 -9h140q23 0 32 9t9 32v98h364v-164q0 -134 -64 -198t-198 -64h-74v-135q0 -109 -46 -151t-146 -42h-191l-102 176h190 q23 0 32 9t9 32v111h-98q-134 0 -198 64t-64 198z" />
<glyph unicode="&#xe8;" horiz-adv-x="1122" d="M84 262v582q0 134 64 198t198 64h436q134 0 198 -64t64 -198v-379h-600v-154q0 -23 9 -32t32 -9h158q23 0 32 9t9 32v56h360v-105q0 -134 -64 -198t-198 -64h-436q-134 0 -198 64t-64 198zM123 1536h448l185 -295h-295zM444 666h240v129q0 23 -9 32t-32 9h-158 q-23 0 -32 -9t-9 -32v-129z" />
<glyph unicode="&#xe9;" horiz-adv-x="1122" d="M84 262v582q0 134 64 198t198 64h436q134 0 198 -64t64 -198v-379h-600v-154q0 -23 9 -32t32 -9h158q23 0 32 9t9 32v56h360v-105q0 -134 -64 -198t-198 -64h-436q-134 0 -198 64t-64 198zM377 1241l184 295h453l-340 -295h-297zM444 666h240v129q0 23 -9 32t-32 9h-158 q-23 0 -32 -9t-9 -32v-129z" />
<glyph unicode="&#xea;" horiz-adv-x="1122" d="M84 262v582q0 134 64 198t198 64h436q134 0 198 -64t64 -198v-379h-600v-154q0 -23 9 -32t32 -9h158q23 0 32 9t9 32v56h360v-105q0 -134 -64 -198t-198 -64h-436q-134 0 -198 64t-64 198zM123 1241l311 293h266l312 -293h-334l-111 117l-110 -117h-334zM444 666h240v129 q0 23 -9 32t-32 9h-158q-23 0 -32 -9t-9 -32v-129z" />
<glyph unicode="&#xeb;" horiz-adv-x="1122" d="M84 262v582q0 134 64 198t198 64h436q134 0 198 -64t64 -198v-379h-600v-154q0 -23 9 -32t32 -9h158q23 0 32 9t9 32v56h360v-105q0 -134 -64 -198t-198 -64h-436q-134 0 -198 64t-64 198zM205 1241v287h305v-287h-305zM444 666h240v129q0 23 -9 32t-32 9h-158 q-23 0 -32 -9t-9 -32v-129zM625 1241v287h305v-287h-305z" />
<glyph unicode="&#xec;" horiz-adv-x="567" d="M-147 1495l337 -295h295l-184 295h-448zM123 0v1106h321v-1106h-321z" />
<glyph unicode="&#xed;" horiz-adv-x="567" d="M84 1200l184 295h453l-340 -295h-297zM123 0v1106h321v-1106h-321z" />
<glyph unicode="&#xee;" horiz-adv-x="591" d="M-147 1200h333l111 117l111 -117h333l-311 293h-266zM135 0v1106h322v-1106h-322z" />
<glyph unicode="&#xef;" horiz-adv-x="591" d="M-66 1200v287h306v-287h-306zM135 0v1106h322v-1106h-322zM354 1200v287h305v-287h-305z" />
<glyph unicode="&#xf0;" horiz-adv-x="1167" d="M84 262v500q0 137 69.5 199.5t239.5 62.5q123 0 197.5 -39.5t128.5 -101.5v135q0 80 -13.5 109t-58.5 44l-12 5l-53 -56h-293l125 129l-152 51v216l332 -78l74 78h293l-134 -138q80 -28 130.5 -60.5t78 -75.5t37.5 -90t10 -114v-776q0 -134 -64.5 -198t-197.5 -64h-475 q-134 0 -198 64t-64 198zM449 328q0 -23 8.5 -32t31.5 -9h189q23 0 32 9t9 32v348q-105 57 -203 57q-39 0 -53 -8.5t-14 -32.5v-364z" />
<glyph unicode="&#xf1;" d="M106 0v1106h365v-129q54 62 126.5 101.5t190.5 39.5q162 0 233 -63t71 -199v-856h-365v770q0 24 -11 32.5t-44 8.5q-96 0 -201 -57v-754h-365zM219 1233h172v39q0 25 11.5 34t35.5 9q35 0 82.5 -23.5t104.5 -47t114 -23.5q39 0 72 12t63.5 40t48 84t17.5 134v51h-176v-39 q0 -43 -43 -43q-35 0 -82 23.5t-101 47t-106 23.5q-39 0 -73.5 -12t-67.5 -40t-52.5 -84t-19.5 -134v-51z" />
<glyph unicode="&#xf2;" horiz-adv-x="1142" d="M84 262v582q0 134 64 198t198 64h451q133 0 197.5 -64t64.5 -198v-582q0 -134 -64.5 -198t-197.5 -64h-451q-134 0 -198 64t-64 198zM127 1536l338 -295h295l-185 295h-448zM440 328q0 -23 9 -32t32 -9h181q23 0 31.5 9t8.5 32v450q0 23 -8.5 32t-31.5 9h-181 q-23 0 -32 -9t-9 -32v-450z" />
<glyph unicode="&#xf3;" horiz-adv-x="1142" d="M84 262v582q0 134 64 198t198 64h451q133 0 197.5 -64t64.5 -198v-582q0 -134 -64.5 -198t-197.5 -64h-451q-134 0 -198 64t-64 198zM381 1241l184 295h453l-340 -295h-297zM440 328q0 -23 9 -32t32 -9h181q23 0 31.5 9t8.5 32v450q0 23 -8.5 32t-31.5 9h-181 q-23 0 -32 -9t-9 -32v-450z" />
<glyph unicode="&#xf4;" horiz-adv-x="1142" d="M84 262v582q0 134 64 198t198 64h451q133 0 197.5 -64t64.5 -198v-582q0 -134 -64.5 -198t-197.5 -64h-451q-134 0 -198 64t-64 198zM127 1241h334l110 117l111 -117h334l-311 293h-267zM440 328q0 -23 9 -32t32 -9h181q23 0 31.5 9t8.5 32v450q0 23 -8.5 32t-31.5 9 h-181q-23 0 -32 -9t-9 -32v-450z" />
<glyph unicode="&#xf5;" horiz-adv-x="1142" d="M84 262v582q0 134 64 198t198 64h451q133 0 197.5 -64t64.5 -198v-582q0 -134 -64.5 -198t-197.5 -64h-451q-134 0 -198 64t-64 198zM197 1233h172v39q0 25 11.5 34t35.5 9q35 0 82.5 -23.5t104.5 -47t114 -23.5q39 0 72 12t63.5 40t48 84t17.5 134v51h-177v-39 q0 -43 -43 -43q-35 0 -81.5 23.5t-100.5 47t-106 23.5q-39 0 -73.5 -12t-67.5 -40t-52.5 -84t-19.5 -134v-51zM440 328q0 -23 9 -32t32 -9h181q23 0 31.5 9t8.5 32v450q0 23 -8.5 32t-31.5 9h-181q-23 0 -32 -9t-9 -32v-450z" />
<glyph unicode="&#xf6;" horiz-adv-x="1142" d="M84 262v582q0 134 64 198t198 64h451q133 0 197.5 -64t64.5 -198v-582q0 -134 -64.5 -198t-197.5 -64h-451q-134 0 -198 64t-64 198zM209 1241v287h305v-287h-305zM440 328q0 -23 9 -32t32 -9h181q23 0 31.5 9t8.5 32v450q0 23 -8.5 32t-31.5 9h-181q-23 0 -32 -9t-9 -32 v-450zM629 1241v287h305v-287h-305z" />
<glyph unicode="&#xf7;" horiz-adv-x="1036" d="M51 586v344h934v-344h-934zM358 166v303h322v-303h-322zM358 1047v303h322v-303h-322z" />
<glyph unicode="&#xf8;" horiz-adv-x="1122" d="M84 262v582q0 134 64 198t198 64h326l47 123h213l-51 -135q157 -43 157 -250v-582q0 -134 -64 -198t-198 -64h-319l-47 -123h-213l51 133q-164 43 -164 252zM424 465l137 354h-96q-23 0 -32 -9t-9 -32v-313zM567 287h90q23 0 32 9t9 32v297z" />
<glyph unicode="&#xf9;" d="M98 250v856h365v-758q0 -24 11 -32.5t44 -8.5q94 0 201 58v741h364v-1106h-364v129q-54 -62 -127 -101.5t-191 -39.5q-162 0 -232.5 63t-70.5 199zM156 1536l338 -295h294l-184 295h-448z" />
<glyph unicode="&#xfa;" d="M98 250v856h365v-758q0 -24 11 -32.5t44 -8.5q94 0 201 58v741h364v-1106h-364v129q-54 -62 -127 -101.5t-191 -39.5q-162 0 -232.5 63t-70.5 199zM410 1241l184 295h453l-340 -295h-297z" />
<glyph unicode="&#xfb;" d="M98 250v856h365v-758q0 -24 11 -32.5t44 -8.5q94 0 201 58v741h364v-1106h-364v129q-54 -62 -127 -101.5t-191 -39.5q-162 0 -232.5 63t-70.5 199zM156 1241h333l111 117l111 -117h333l-311 293h-266z" />
<glyph unicode="&#xfc;" d="M98 250v856h365v-758q0 -24 11 -32.5t44 -8.5q94 0 201 58v741h364v-1106h-364v129q-54 -62 -127 -101.5t-191 -39.5q-162 0 -232.5 63t-70.5 199zM238 1241v287h305v-287h-305zM657 1241v287h306v-287h-306z" />
<glyph unicode="&#xfd;" horiz-adv-x="1122" d="M8 1106h383l180 -739l181 739h362l-479 -1434h-352l108 328zM381 1241l184 295h453l-340 -295h-297z" />
<glyph unicode="&#xfe;" d="M106 -328v1823h365v-518q54 62 128.5 101.5t197.5 39.5q170 0 239.5 -62.5t69.5 -199.5v-606q0 -137 -69.5 -199.5t-239.5 -62.5q-123 0 -197.5 39.5t-128.5 101.5v-457h-365zM471 336q105 -57 203 -57q40 0 53.5 8.5t13.5 31.5v467q0 24 -14 32.5t-53 8.5 q-98 0 -203 -57v-434z" />
<glyph unicode="&#xff;" horiz-adv-x="1122" d="M8 1106h383l180 -739l181 739h362l-479 -1434h-352l108 328zM209 1241v287h305v-287h-305zM629 1241v287h305v-287h-305z" />
<glyph unicode="&#x152;" horiz-adv-x="1941" d="M106 279v876q0 141 69 210t210 69h1477v-328h-623v-211h494v-324h-494v-243h623v-328h-1477q-141 0 -210 69t-69 210zM492 365q0 -22 7 -29.5t29 -7.5h326v778h-326q-22 0 -29 -7.5t-7 -29.5v-704z" />
<glyph unicode="&#x153;" horiz-adv-x="1740" d="M84 262v582q0 134 64 198t198 64h309q221 0 226 -105q5 105 225 105h295q133 0 197.5 -64t64.5 -198v-383h-600v-150q0 -23 9 -32t32 -9h158q23 0 32 9t9 32v51h360v-100q0 -134 -64.5 -198t-197.5 -64h-295q-220 0 -225 104q-5 -104 -226 -104h-309q-134 0 -198 64 t-64 198zM440 328q0 -23 9 -32t32 -9h181q23 0 31.5 9t8.5 32v450q0 23 -8.5 32t-31.5 9h-181q-23 0 -32 -9t-9 -32v-450zM1063 666h240v129q0 23 -9 32t-32 9h-158q-23 0 -32 -9t-9 -32v-129z" />
<glyph unicode="&#x178;" horiz-adv-x="1306" d="M4 1434h418l233 -609l234 609h414l-457 -990v-444h-385v444zM293 1569v286h305v-286h-305zM713 1569v286h305v-286h-305z" />
<glyph unicode="&#x2c6;" horiz-adv-x="1347" d="M229 1569h334l111 117l110 -117h334l-311 293h-266z" />
<glyph unicode="&#x2dc;" horiz-adv-x="1245" d="M246 1561h172v38q0 25 11.5 34t35.5 9q35 0 82.5 -23.5t104.5 -47t114 -23.5q39 0 72 12t63.5 40.5t48 84.5t17.5 134v51h-176v-39q0 -43 -43 -43q-35 0 -82 23.5t-101 47t-106 23.5q-39 0 -73.5 -12t-67.5 -40t-52.5 -84t-19.5 -134v-51z" />
<glyph unicode="&#x2000;" horiz-adv-x="972" />
<glyph unicode="&#x2001;" horiz-adv-x="1944" />
<glyph unicode="&#x2002;" horiz-adv-x="972" />
<glyph unicode="&#x2003;" horiz-adv-x="1944" />
<glyph unicode="&#x2004;" horiz-adv-x="648" />
<glyph unicode="&#x2005;" horiz-adv-x="486" />
<glyph unicode="&#x2006;" horiz-adv-x="324" />
<glyph unicode="&#x2007;" horiz-adv-x="324" />
<glyph unicode="&#x2008;" horiz-adv-x="243" />
<glyph unicode="&#x2009;" horiz-adv-x="388" />
<glyph unicode="&#x200a;" horiz-adv-x="108" />
<glyph unicode="&#x2010;" horiz-adv-x="927" d="M94 508v330h740v-330h-740z" />
<glyph unicode="&#x2011;" horiz-adv-x="927" d="M94 508v330h740v-330h-740z" />
<glyph unicode="&#x2012;" horiz-adv-x="927" d="M94 508v330h740v-330h-740z" />
<glyph unicode="&#x2013;" horiz-adv-x="1150" d="M94 508v330h963v-330h-963z" />
<glyph unicode="&#x2014;" horiz-adv-x="1632" d="M94 508v332h1444v-332h-1444z" />
<glyph unicode="&#x2018;" horiz-adv-x="526" d="M74 791v247q0 64 22.5 112t83.5 110l170 174h123l-178 -283h158v-360h-379z" />
<glyph unicode="&#x2019;" horiz-adv-x="526" d="M53 791l178 282h-157v361h379v-248q0 -63 -23 -110.5t-84 -110.5l-170 -174h-123z" />
<glyph unicode="&#x201a;" horiz-adv-x="526" d="M53 -283l178 283h-157v360h379v-247q0 -63 -23 -111t-84 -111l-170 -174h-123z" />
<glyph unicode="&#x201c;" horiz-adv-x="985" d="M74 791v247q0 64 22.5 112t83.5 110l170 174h123l-178 -283h158v-360h-379zM532 791v247q0 63 23 111t84 111l170 174h123l-178 -283h157v-360h-379z" />
<glyph unicode="&#x201d;" horiz-adv-x="985" d="M53 791l178 282h-157v361h379v-248q0 -63 -23 -110.5t-84 -110.5l-170 -174h-123zM512 791l178 282h-158v361h379v-248q0 -64 -22.5 -111.5t-83.5 -109.5l-170 -174h-123z" />
<glyph unicode="&#x201e;" horiz-adv-x="985" d="M53 -303l178 283h-157v360h379v-248q0 -63 -23 -110.5t-84 -110.5l-170 -174h-123zM512 -303l178 283h-158v360h379v-248q0 -64 -22.5 -111.5t-83.5 -109.5l-170 -174h-123z" />
<glyph unicode="&#x2022;" horiz-adv-x="872" d="M168 741q0 145 62.5 208t207.5 63t208 -63t63 -208t-63 -207.5t-208 -62.5t-207.5 62.5t-62.5 207.5z" />
<glyph unicode="&#x2026;" horiz-adv-x="1480" d="M94 0v360h379v-360h-379zM551 0v360h379v-360h-379zM1008 0v360h378v-360h-378z" />
<glyph unicode="&#x202f;" horiz-adv-x="388" />
<glyph unicode="&#x2039;" horiz-adv-x="661" d="M8 662v114l262 369h369l-305 -426l305 -424h-369z" />
<glyph unicode="&#x203a;" horiz-adv-x="661" d="M23 295l305 424l-305 426h368l262 -369v-114l-262 -367h-368z" />
<glyph unicode="&#x205f;" horiz-adv-x="486" />
<glyph unicode="&#x20ac;" horiz-adv-x="1351" d="M41 512v158h135v88h-135v160h135v237q0 141 69 210t210 69h549q141 0 209.5 -69t68.5 -210v-207h-385v129q0 22 -7.5 29.5t-29.5 7.5h-262q-22 0 -29.5 -7.5t-7.5 -29.5v-159h293v-160h-293v-88h293v-158h-293v-156q0 -22 7.5 -29.5t29.5 -7.5h262q22 0 29.5 7.5 t7.5 29.5v129h385v-206q0 -141 -68.5 -210t-209.5 -69h-549q-141 0 -210 69t-69 210v233h-135z" />
<glyph unicode="&#x2122;" horiz-adv-x="1540" d="M88 1257v177h539v-177h-176v-561h-191v561h-172zM727 696v738h199l161 -385l170 385h195v-738h-176v410l-131 -303h-111l-131 303v-410h-176z" />
<glyph unicode="&#x25fc;" horiz-adv-x="1105" d="M0 0v1106h1106v-1106h-1106z" />
</font>
</defs>
</svg>
